<?xml version="1.0" encoding="utf-8"?>
<!-- Generator: Adobe Illustrator 16.0.0, SVG Export Plug-In . SVG Version: 6.00 Build 0)  -->
<!DOCTYPE svg PUBLIC "-//W3C//DTD SVG 1.1//EN" "http://www.w3.org/Graphics/SVG/1.1/DTD/svg11.dtd">
<svg version="1.1" id="Layer_1" xmlns="http://www.w3.org/2000/svg" xmlns:xlink="http://www.w3.org/1999/xlink" x="0px" y="0px"
	 width="285px" height="282px" viewBox="0 0 285 282" enable-background="new 0 0 285 282" xml:space="preserve">
<g>
	<rect x="138.831" y="240.027" fill="#757575" width="7.339" height="22.981"/>
	<path fill="#757575" d="M0,267h123.468v7.338H0V267L0,267z M161.771,267H285v7.338H161.771V267z"/>
	<path fill="#616161" d="M123.489,259.34h38.021c2.416,0,4.396,1.979,4.396,4.395v13.869c0,2.418-1.98,4.396-4.396,4.396h-38.021
		c-2.417,0-4.396-1.979-4.396-4.396v-13.869C119.095,261.318,121.072,259.34,123.489,259.34z"/>
	<g>
		<path fill="#616161" d="M70.199,133.099h144.602c1.814,0,3.297,1.486,3.297,3.297V247.85c0,1.812-1.483,3.297-3.297,3.297H70.199
			c-1.811,0-3.296-1.481-3.296-3.297V136.396C66.903,134.583,68.387,133.099,70.199,133.099z"/>
		<g>
			<path fill="#212121" d="M74.568,145.75h135.866c1.592,0,2.896,1.307,2.896,2.896v8.272c0,1.59-1.308,2.896-2.896,2.896H74.568
				c-1.591,0-2.896-1.303-2.896-2.896v-8.272C71.672,147.055,72.975,145.75,74.568,145.75z"/>
			<path fill="#43A047" d="M78.763,155.646c1.451,0,2.636-1.185,2.636-2.636c0-1.45-1.185-2.635-2.636-2.635
				c-1.452,0-2.636,1.185-2.636,2.635C76.127,154.462,77.311,155.646,78.763,155.646z"/>
			<path fill="#43A047" d="M85.619,155.646c1.451,0,2.635-1.185,2.635-2.636c0-1.45-1.184-2.635-2.635-2.635
				c-1.451,0-2.636,1.185-2.636,2.635C82.983,154.462,84.168,155.646,85.619,155.646z"/>
			<path fill="#43A047" d="M92.476,155.646c1.452,0,2.636-1.185,2.636-2.636c0-1.45-1.184-2.635-2.636-2.635
				s-2.636,1.185-2.636,2.635C89.84,154.462,91.023,155.646,92.476,155.646z"/>
			<path fill="#55ABDB" d="M199.461,155.646c1.451,0,2.637-1.185,2.637-2.636c0-1.45-1.186-2.635-2.637-2.635
				s-2.635,1.185-2.635,2.635C196.826,154.462,198.01,155.646,199.461,155.646z"/>
			<path fill="#55ABDB" d="M206.318,155.646c1.451,0,2.635-1.185,2.635-2.636c0-1.45-1.184-2.635-2.635-2.635
				s-2.635,1.185-2.635,2.635C203.684,154.462,204.867,155.646,206.318,155.646z"/>
			<rect x="98.549" y="149.266" fill="#424242" width="87.904" height="7.033"/>
			<g>
				<rect x="103.224" y="151.293" width="3.036" height="3.035"/>
				<rect x="108.258" y="151.293" width="3.037" height="3.035"/>
				<rect x="113.293" y="151.293" width="3.036" height="3.035"/>
				<rect x="118.327" y="151.293" width="3.036" height="3.035"/>
				<rect x="123.361" y="151.293" width="3.037" height="3.035"/>
				<rect x="128.396" y="151.293" width="3.037" height="3.035"/>
				<rect x="133.43" y="151.293" width="3.037" height="3.035"/>
				<rect x="138.465" y="151.293" width="3.036" height="3.035"/>
				<rect x="143.5" y="151.293" width="3.035" height="3.035"/>
				<rect x="148.535" y="151.293" width="3.035" height="3.035"/>
				<rect x="153.568" y="151.293" width="3.037" height="3.035"/>
				<rect x="158.604" y="151.293" width="3.035" height="3.035"/>
				<rect x="163.637" y="151.293" width="3.037" height="3.035"/>
				<rect x="168.672" y="151.293" width="3.037" height="3.035"/>
				<rect x="173.707" y="151.293" width="3.035" height="3.035"/>
				<rect x="178.74" y="151.293" width="3.037" height="3.035"/>
			</g>
			<path fill="#212121" d="M74.568,163.33h135.866c1.592,0,2.896,1.307,2.896,2.896v8.272c0,1.59-1.308,2.897-2.896,2.897H74.568
				c-1.591,0-2.896-1.305-2.896-2.897v-8.272C71.672,164.635,72.975,163.33,74.568,163.33z"/>
			<path fill="#43A047" d="M78.763,173.229c1.451,0,2.636-1.184,2.636-2.637c0-1.451-1.185-2.635-2.636-2.635
				c-1.452,0-2.636,1.184-2.636,2.635C76.127,172.045,77.311,173.229,78.763,173.229z"/>
			<path fill="#43A047" d="M85.619,173.229c1.451,0,2.635-1.184,2.635-2.637c0-1.451-1.184-2.635-2.635-2.635
				c-1.451,0-2.636,1.184-2.636,2.635C82.983,172.045,84.168,173.229,85.619,173.229z"/>
			<path fill="#43A047" d="M92.476,173.229c1.452,0,2.636-1.184,2.636-2.637c0-1.451-1.184-2.635-2.636-2.635
				s-2.636,1.184-2.636,2.635C89.84,172.045,91.023,173.229,92.476,173.229z"/>
			<path fill="#55ABDB" d="M199.461,173.229c1.451,0,2.637-1.184,2.637-2.637c0-1.451-1.186-2.635-2.637-2.635
				s-2.635,1.184-2.635,2.635C196.826,172.045,198.01,173.229,199.461,173.229z"/>
			<path fill="#55ABDB" d="M206.318,173.229c1.451,0,2.635-1.184,2.635-2.637c0-1.451-1.184-2.635-2.635-2.635
				s-2.635,1.184-2.635,2.635C203.684,172.045,204.867,173.229,206.318,173.229z"/>
			<rect x="98.549" y="166.848" fill="#424242" width="87.904" height="7.031"/>
			<g>
				<rect x="103.224" y="168.873" width="3.036" height="3.035"/>
				<rect x="108.258" y="168.873" width="3.037" height="3.035"/>
				<rect x="113.293" y="168.873" width="3.036" height="3.035"/>
				<rect x="118.327" y="168.873" width="3.036" height="3.035"/>
				<rect x="123.361" y="168.873" width="3.037" height="3.035"/>
				<rect x="128.396" y="168.873" width="3.037" height="3.035"/>
				<rect x="133.43" y="168.873" width="3.037" height="3.035"/>
				<rect x="138.465" y="168.873" width="3.036" height="3.035"/>
				<rect x="143.5" y="168.873" width="3.035" height="3.035"/>
				<rect x="148.535" y="168.873" width="3.035" height="3.035"/>
				<rect x="153.568" y="168.873" width="3.037" height="3.035"/>
				<rect x="158.604" y="168.873" width="3.035" height="3.035"/>
				<rect x="163.637" y="168.873" width="3.037" height="3.035"/>
				<rect x="168.672" y="168.873" width="3.037" height="3.035"/>
				<rect x="173.707" y="168.873" width="3.035" height="3.035"/>
				<rect x="178.74" y="168.873" width="3.037" height="3.035"/>
			</g>
			<path fill="#212121" d="M74.568,180.912h135.866c1.592,0,2.896,1.305,2.896,2.896v8.271c0,1.592-1.308,2.897-2.896,2.897H74.568
				c-1.591,0-2.896-1.305-2.896-2.897v-8.271C71.672,182.215,72.975,180.912,74.568,180.912z"/>
			<path fill="#43A047" d="M78.763,190.809c1.451,0,2.636-1.184,2.636-2.637c0-1.451-1.185-2.635-2.636-2.635
				c-1.452,0-2.636,1.184-2.636,2.635C76.127,189.625,77.311,190.809,78.763,190.809z"/>
			<path fill="#43A047" d="M85.619,190.809c1.451,0,2.635-1.184,2.635-2.637c0-1.451-1.184-2.635-2.635-2.635
				c-1.451,0-2.636,1.184-2.636,2.635C82.983,189.625,84.168,190.809,85.619,190.809z"/>
			<path fill="#43A047" d="M92.476,190.809c1.452,0,2.636-1.184,2.636-2.637c0-1.451-1.184-2.635-2.636-2.635
				s-2.636,1.184-2.636,2.635C89.84,189.625,91.023,190.809,92.476,190.809z"/>
			<path fill="#55ABDB" d="M199.461,190.809c1.451,0,2.637-1.184,2.637-2.637c0-1.451-1.186-2.635-2.637-2.635
				s-2.635,1.184-2.635,2.635C196.826,189.625,198.01,190.809,199.461,190.809z"/>
			<path fill="#55ABDB" d="M206.318,190.809c1.451,0,2.635-1.184,2.635-2.637c0-1.451-1.184-2.635-2.635-2.635
				s-2.635,1.184-2.635,2.635C203.684,189.625,204.867,190.809,206.318,190.809z"/>
			<rect x="98.549" y="184.428" fill="#424242" width="87.904" height="7.031"/>
			<g>
				<rect x="103.224" y="186.453" width="3.036" height="3.035"/>
				<rect x="108.258" y="186.453" width="3.037" height="3.035"/>
				<rect x="113.293" y="186.453" width="3.036" height="3.035"/>
				<rect x="118.327" y="186.453" width="3.036" height="3.035"/>
				<rect x="123.361" y="186.453" width="3.037" height="3.035"/>
				<rect x="128.396" y="186.453" width="3.037" height="3.035"/>
				<rect x="133.43" y="186.453" width="3.037" height="3.035"/>
				<rect x="138.465" y="186.453" width="3.036" height="3.035"/>
				<rect x="143.5" y="186.453" width="3.035" height="3.035"/>
				<rect x="148.535" y="186.453" width="3.035" height="3.035"/>
				<rect x="153.568" y="186.453" width="3.037" height="3.035"/>
				<rect x="158.604" y="186.453" width="3.035" height="3.035"/>
				<rect x="163.637" y="186.453" width="3.037" height="3.035"/>
				<rect x="168.672" y="186.453" width="3.037" height="3.035"/>
				<rect x="173.707" y="186.453" width="3.035" height="3.035"/>
				<rect x="178.74" y="186.453" width="3.037" height="3.035"/>
			</g>
			<path fill="#212121" d="M74.568,198.492h135.866c1.592,0,2.896,1.307,2.896,2.896v8.272c0,1.59-1.308,2.896-2.896,2.896H74.568
				c-1.591,0-2.896-1.305-2.896-2.896v-8.272C71.672,199.795,72.975,198.492,74.568,198.492z"/>
			<path fill="#43A047" d="M78.763,208.389c1.451,0,2.636-1.184,2.636-2.635c0-1.453-1.185-2.637-2.636-2.637
				c-1.452,0-2.636,1.184-2.636,2.637C76.127,207.205,77.311,208.389,78.763,208.389z"/>
			<path fill="#43A047" d="M85.619,208.389c1.451,0,2.635-1.184,2.635-2.635c0-1.453-1.184-2.637-2.635-2.637
				c-1.451,0-2.636,1.184-2.636,2.637C82.983,207.205,84.168,208.389,85.619,208.389z"/>
			<path fill="#43A047" d="M92.476,208.389c1.452,0,2.636-1.184,2.636-2.635c0-1.453-1.184-2.637-2.636-2.637
				s-2.636,1.184-2.636,2.637C89.84,207.205,91.023,208.389,92.476,208.389z"/>
			<path fill="#55ABDB" d="M199.461,208.389c1.451,0,2.637-1.184,2.637-2.635c0-1.453-1.186-2.637-2.637-2.637
				s-2.635,1.184-2.635,2.637C196.826,207.205,198.01,208.389,199.461,208.389z"/>
			<path fill="#55ABDB" d="M206.318,208.389c1.451,0,2.635-1.184,2.635-2.635c0-1.453-1.184-2.637-2.635-2.637
				s-2.635,1.184-2.635,2.637C203.684,207.205,204.867,208.389,206.318,208.389z"/>
			<rect x="98.549" y="202.008" fill="#424242" width="87.904" height="7.033"/>
			<g>
				<rect x="103.224" y="204.033" width="3.036" height="3.037"/>
				<rect x="108.258" y="204.033" width="3.037" height="3.037"/>
				<rect x="113.293" y="204.033" width="3.036" height="3.037"/>
				<rect x="118.327" y="204.033" width="3.036" height="3.037"/>
				<rect x="123.361" y="204.033" width="3.037" height="3.037"/>
				<rect x="128.396" y="204.033" width="3.037" height="3.037"/>
				<rect x="133.43" y="204.033" width="3.037" height="3.037"/>
				<rect x="138.465" y="204.033" width="3.036" height="3.037"/>
				<rect x="143.5" y="204.033" width="3.035" height="3.037"/>
				<rect x="148.535" y="204.033" width="3.035" height="3.037"/>
				<rect x="153.568" y="204.033" width="3.037" height="3.037"/>
				<rect x="158.604" y="204.033" width="3.035" height="3.037"/>
				<rect x="163.637" y="204.033" width="3.037" height="3.037"/>
				<rect x="168.672" y="204.033" width="3.037" height="3.037"/>
				<rect x="173.707" y="204.033" width="3.035" height="3.037"/>
				<rect x="178.74" y="204.033" width="3.037" height="3.037"/>
			</g>
			<path fill="#212121" d="M74.568,216.072h135.866c1.592,0,2.896,1.307,2.896,2.896v8.273c0,1.59-1.308,2.896-2.896,2.896H74.568
				c-1.591,0-2.896-1.303-2.896-2.896v-8.273C71.672,217.375,72.975,216.072,74.568,216.072z"/>
			<path fill="#43A047" d="M78.763,225.969c1.451,0,2.636-1.184,2.636-2.637c0-1.451-1.185-2.635-2.636-2.635
				c-1.452,0-2.636,1.184-2.636,2.635C76.127,224.785,77.311,225.969,78.763,225.969z"/>
			<path fill="#43A047" d="M85.619,225.969c1.451,0,2.635-1.184,2.635-2.637c0-1.451-1.184-2.635-2.635-2.635
				c-1.451,0-2.636,1.184-2.636,2.635C82.983,224.785,84.168,225.969,85.619,225.969z"/>
			<path fill="#43A047" d="M92.476,225.969c1.452,0,2.636-1.184,2.636-2.637c0-1.451-1.184-2.635-2.636-2.635
				s-2.636,1.184-2.636,2.635C89.84,224.785,91.023,225.969,92.476,225.969z"/>
			<path fill="#55ABDB" d="M199.461,225.969c1.451,0,2.637-1.184,2.637-2.637c0-1.451-1.186-2.635-2.637-2.635
				s-2.635,1.184-2.635,2.635C196.826,224.785,198.01,225.969,199.461,225.969z"/>
			<path fill="#55ABDB" d="M206.318,225.969c1.451,0,2.635-1.184,2.635-2.637c0-1.451-1.184-2.635-2.635-2.635
				s-2.635,1.184-2.635,2.635C203.684,224.785,204.867,225.969,206.318,225.969z"/>
			<rect x="98.549" y="219.588" fill="#424242" width="87.904" height="7.031"/>
			<g>
				<rect x="103.224" y="221.613" width="3.036" height="3.037"/>
				<rect x="108.258" y="221.613" width="3.037" height="3.037"/>
				<rect x="113.293" y="221.613" width="3.036" height="3.037"/>
				<rect x="118.327" y="221.613" width="3.036" height="3.037"/>
				<rect x="123.361" y="221.613" width="3.037" height="3.037"/>
				<rect x="128.396" y="221.613" width="3.037" height="3.037"/>
				<rect x="133.43" y="221.613" width="3.037" height="3.037"/>
				<rect x="138.465" y="221.613" width="3.036" height="3.037"/>
				<rect x="143.5" y="221.613" width="3.035" height="3.037"/>
				<rect x="148.535" y="221.613" width="3.035" height="3.037"/>
				<rect x="153.568" y="221.613" width="3.037" height="3.037"/>
				<rect x="158.604" y="221.613" width="3.035" height="3.037"/>
				<rect x="163.637" y="221.613" width="3.037" height="3.037"/>
				<rect x="168.672" y="221.613" width="3.037" height="3.037"/>
				<rect x="173.707" y="221.613" width="3.035" height="3.037"/>
				<rect x="178.74" y="221.613" width="3.037" height="3.037"/>
			</g>
			<path fill="#212121" d="M74.568,233.652h135.866c1.592,0,2.896,1.307,2.896,2.896v8.272c0,1.591-1.308,2.896-2.896,2.896H74.568
				c-1.591,0-2.896-1.303-2.896-2.896v-8.272C71.672,234.957,72.975,233.652,74.568,233.652z"/>
			<path fill="#43A047" d="M78.763,243.549c1.451,0,2.636-1.184,2.636-2.635c0-1.453-1.185-2.635-2.636-2.635
				c-1.452,0-2.636,1.182-2.636,2.635C76.127,242.365,77.311,243.549,78.763,243.549z"/>
			<path fill="#43A047" d="M85.619,243.549c1.451,0,2.635-1.184,2.635-2.635c0-1.453-1.184-2.635-2.635-2.635
				c-1.451,0-2.636,1.182-2.636,2.635C82.983,242.365,84.168,243.549,85.619,243.549z"/>
			<path fill="#43A047" d="M92.476,243.549c1.452,0,2.636-1.184,2.636-2.635c0-1.453-1.184-2.635-2.636-2.635
				s-2.636,1.182-2.636,2.635C89.84,242.365,91.023,243.549,92.476,243.549z"/>
			<path fill="#55ABDB" d="M199.461,243.549c1.451,0,2.637-1.184,2.637-2.635c0-1.453-1.186-2.635-2.637-2.635
				s-2.635,1.182-2.635,2.635C196.826,242.365,198.01,243.549,199.461,243.549z"/>
			<path fill="#55ABDB" d="M206.318,243.549c1.451,0,2.635-1.184,2.635-2.635c0-1.453-1.184-2.635-2.635-2.635
				s-2.635,1.182-2.635,2.635C203.684,242.365,204.867,243.549,206.318,243.549z"/>
			<rect x="98.549" y="237.168" fill="#424242" width="87.904" height="7.033"/>
			<g>
				<rect x="103.224" y="239.193" width="3.036" height="3.037"/>
				<rect x="108.258" y="239.193" width="3.037" height="3.037"/>
				<rect x="113.293" y="239.193" width="3.036" height="3.037"/>
				<rect x="118.327" y="239.193" width="3.036" height="3.037"/>
				<rect x="123.361" y="239.193" width="3.037" height="3.037"/>
				<rect x="128.396" y="239.193" width="3.037" height="3.037"/>
				<rect x="133.43" y="239.193" width="3.037" height="3.037"/>
				<rect x="138.465" y="239.193" width="3.036" height="3.037"/>
				<rect x="143.5" y="239.193" width="3.035" height="3.037"/>
				<rect x="148.535" y="239.193" width="3.035" height="3.037"/>
				<rect x="153.568" y="239.193" width="3.037" height="3.037"/>
				<rect x="158.604" y="239.193" width="3.035" height="3.037"/>
				<rect x="163.637" y="239.193" width="3.037" height="3.037"/>
				<rect x="168.672" y="239.193" width="3.037" height="3.037"/>
				<rect x="173.707" y="239.193" width="3.035" height="3.037"/>
				<rect x="178.74" y="239.193" width="3.037" height="3.037"/>
			</g>
		</g>
		<g>
			<g>
				<path fill="#757575" d="M207.375,142.674c1.725,0,3.133-1.407,3.133-3.135c0-1.725-1.408-3.132-3.133-3.132
					c-1.727,0-3.133,1.408-3.133,3.132C204.242,141.267,205.648,142.674,207.375,142.674z"/>
				<path fill="#424242" d="M207.375,141.531c1.098,0,1.992-0.896,1.992-1.992c0-1.096-0.895-1.99-1.992-1.99
					s-1.992,0.895-1.992,1.99C205.383,140.637,206.277,141.531,207.375,141.531z"/>
			</g>
			<g>
				<path fill="#757575" d="M77.627,142.674c1.726,0,3.133-1.407,3.133-3.135c0-1.725-1.407-3.132-3.133-3.132
					c-1.727,0-3.134,1.408-3.134,3.132C74.493,141.267,75.9,142.674,77.627,142.674z"/>
				<path fill="#424242" d="M77.627,141.531c1.097,0,1.991-0.896,1.991-1.992c0-1.096-0.895-1.99-1.991-1.99
					c-1.098,0-1.992,0.895-1.992,1.99C75.635,140.637,76.529,141.531,77.627,141.531z"/>
			</g>
		</g>
	</g>
	<g>
		<path fill="#757575" d="M253.688,136.069h-5.265v-5.265h5.265V136.069L253.688,136.069z M253.688,262.406h-5.265v-5.264h5.265
			V262.406L253.688,262.406z M253.688,251.879h-5.265v-5.264h5.265V251.879L253.688,251.879z M253.688,241.352h-5.265v-5.266h5.265
			V241.352L253.688,241.352z M253.688,230.824h-5.265v-5.266h5.265V230.824L253.688,230.824z M253.688,220.295h-5.265v-5.264h5.265
			V220.295L253.688,220.295z M253.688,209.768h-5.265v-5.264h5.265V209.768L253.688,209.768z M253.688,199.236h-5.265v-5.262h5.265
			V199.236L253.688,199.236z M253.688,188.709h-5.265v-5.262h5.265V188.709L253.688,188.709z M253.688,178.182h-5.265v-5.264h5.265
			V178.182L253.688,178.182z M253.688,167.654h-5.265v-5.264h5.265V167.654L253.688,167.654z M253.688,157.125h-5.265v-5.264h5.265
			V157.125L253.688,157.125z M253.688,146.596h-5.265v-5.262h5.265V146.596z"/>
		<g>
			<polygon fill="#616161" points="219.723,0 282.391,0 285,0 285,2.611 285,122.722 285,125.333 282.391,125.333 219.723,125.333 
				217.111,125.333 217.111,122.722 217.111,2.611 217.111,0 			"/>
			<rect x="217.111" y="111.5" fill="#55ABDB" width="67.889" height="1.118"/>
			<rect x="217.111" y="115.344" fill="#212121" width="67.889" height="0.913"/>
			<rect x="217.111" y="118.721" fill="#55ABDB" width="67.889" height="0.914"/>
			<circle fill="#FDFBFC" cx="251.057" cy="107.054" r="2.611"/>
			<g>
				<g>
					<path fill="#212121" d="M223.509,5.223h55.095c0.646,0,1.174,0.53,1.174,1.175v3.354c0,0.645-0.529,1.175-1.174,1.175h-55.095
						c-0.645,0-1.175-0.528-1.175-1.175V6.398C222.334,5.752,222.861,5.223,223.509,5.223z"/>
					<circle fill="#43A047" cx="225.21" cy="8.168" r="1.069"/>
					<circle fill="#43A047" cx="227.99" cy="8.168" r="1.069"/>
					<circle fill="#43A047" cx="230.771" cy="8.168" r="1.069"/>
					<circle fill="#55ABDB" cx="274.152" cy="8.168" r="1.069"/>
					<circle fill="#55ABDB" cx="276.934" cy="8.168" r="1.069"/>
					<rect x="233.232" y="6.649" fill="#424242" width="35.646" height="2.852"/>
					<g>
						<rect x="235.129" y="7.47" width="1.23" height="1.231"/>
						<rect x="237.17" y="7.47" width="1.23" height="1.231"/>
						<rect x="239.212" y="7.47" width="1.231" height="1.231"/>
						<rect x="241.254" y="7.47" width="1.23" height="1.231"/>
						<rect x="243.295" y="7.47" width="1.23" height="1.231"/>
						<rect x="245.336" y="7.47" width="1.23" height="1.231"/>
						<rect x="247.378" y="7.47" width="1.231" height="1.231"/>
						<rect x="249.42" y="7.47" width="1.23" height="1.231"/>
						<rect x="251.461" y="7.47" width="1.23" height="1.231"/>
						<rect x="253.503" y="7.47" width="1.229" height="1.231"/>
						<rect x="255.544" y="7.47" width="1.231" height="1.231"/>
						<rect x="257.585" y="7.47" width="1.231" height="1.231"/>
						<rect x="259.626" y="7.47" width="1.231" height="1.231"/>
						<rect x="261.668" y="7.47" width="1.23" height="1.231"/>
						<rect x="263.71" y="7.47" width="1.229" height="1.231"/>
						<rect x="265.751" y="7.47" width="1.231" height="1.231"/>
					</g>
				</g>
				<g>
					<path fill="#212121" d="M223.509,12.798h55.095c0.646,0,1.174,0.53,1.174,1.175v3.354c0,0.645-0.529,1.175-1.174,1.175h-55.095
						c-0.645,0-1.175-0.528-1.175-1.175v-3.354C222.334,13.327,222.861,12.798,223.509,12.798z"/>
					<circle fill="#43A047" cx="225.21" cy="15.743" r="1.069"/>
					<circle fill="#43A047" cx="227.99" cy="15.743" r="1.069"/>
					<circle fill="#43A047" cx="230.771" cy="15.743" r="1.069"/>
					<circle fill="#55ABDB" cx="274.152" cy="15.743" r="1.069"/>
					<circle fill="#55ABDB" cx="276.934" cy="15.743" r="1.069"/>
					<rect x="233.232" y="14.224" fill="#424242" width="35.646" height="2.852"/>
					<g>
						<rect x="235.129" y="15.045" width="1.23" height="1.231"/>
						<rect x="237.17" y="15.045" width="1.23" height="1.231"/>
						<rect x="239.212" y="15.045" width="1.231" height="1.231"/>
						<rect x="241.254" y="15.045" width="1.23" height="1.231"/>
						<rect x="243.295" y="15.045" width="1.23" height="1.231"/>
						<rect x="245.336" y="15.045" width="1.23" height="1.231"/>
						<rect x="247.378" y="15.045" width="1.231" height="1.231"/>
						<rect x="249.42" y="15.045" width="1.23" height="1.231"/>
						<rect x="251.461" y="15.045" width="1.23" height="1.231"/>
						<rect x="253.503" y="15.045" width="1.229" height="1.231"/>
						<rect x="255.544" y="15.045" width="1.231" height="1.231"/>
						<rect x="257.585" y="15.045" width="1.231" height="1.231"/>
						<rect x="259.626" y="15.045" width="1.231" height="1.231"/>
						<rect x="261.668" y="15.045" width="1.23" height="1.231"/>
						<rect x="263.71" y="15.045" width="1.229" height="1.231"/>
						<rect x="265.751" y="15.045" width="1.231" height="1.231"/>
					</g>
				</g>
				<g>
					<path fill="#212121" d="M223.509,20.374h55.095c0.646,0,1.174,0.529,1.174,1.176v3.354c0,0.646-0.529,1.176-1.174,1.176
						h-55.095c-0.645,0-1.175-0.529-1.175-1.176V21.55C222.334,20.903,222.861,20.374,223.509,20.374z"/>
					<circle fill="#43A047" cx="225.21" cy="23.319" r="1.068"/>
					<circle fill="#43A047" cx="227.99" cy="23.319" r="1.068"/>
					<circle fill="#43A047" cx="230.771" cy="23.319" r="1.068"/>
					<circle fill="#55ABDB" cx="274.152" cy="23.319" r="1.068"/>
					<circle fill="#55ABDB" cx="276.934" cy="23.319" r="1.068"/>
					<rect x="233.232" y="21.799" fill="#424242" width="35.646" height="2.852"/>
					<g>
						<rect x="235.129" y="22.622" width="1.23" height="1.23"/>
						<rect x="237.17" y="22.622" width="1.23" height="1.23"/>
						<rect x="239.212" y="22.622" width="1.231" height="1.23"/>
						<rect x="241.254" y="22.622" width="1.23" height="1.23"/>
						<rect x="243.295" y="22.622" width="1.23" height="1.23"/>
						<rect x="245.336" y="22.622" width="1.23" height="1.23"/>
						<rect x="247.378" y="22.622" width="1.231" height="1.23"/>
						<rect x="249.42" y="22.622" width="1.23" height="1.23"/>
						<rect x="251.461" y="22.622" width="1.23" height="1.23"/>
						<rect x="253.503" y="22.622" width="1.229" height="1.23"/>
						<rect x="255.544" y="22.622" width="1.231" height="1.23"/>
						<rect x="257.585" y="22.622" width="1.231" height="1.23"/>
						<rect x="259.626" y="22.622" width="1.231" height="1.23"/>
						<rect x="261.668" y="22.622" width="1.23" height="1.23"/>
						<rect x="263.71" y="22.622" width="1.229" height="1.23"/>
						<rect x="265.751" y="22.622" width="1.231" height="1.23"/>
					</g>
				</g>
				<g>
					<path fill="#212121" d="M223.509,27.95h55.095c0.646,0,1.174,0.53,1.174,1.175v3.354c0,0.645-0.529,1.175-1.174,1.175h-55.095
						c-0.645,0-1.175-0.528-1.175-1.175v-3.354C222.334,28.479,222.861,27.95,223.509,27.95z"/>
					<circle fill="#43A047" cx="225.21" cy="30.895" r="1.069"/>
					<circle fill="#43A047" cx="227.99" cy="30.895" r="1.069"/>
					<circle fill="#43A047" cx="230.771" cy="30.895" r="1.069"/>
					<circle fill="#55ABDB" cx="274.152" cy="30.895" r="1.069"/>
					<circle fill="#55ABDB" cx="276.934" cy="30.895" r="1.069"/>
					<rect x="233.232" y="29.375" fill="#424242" width="35.646" height="2.852"/>
					<g>
						<rect x="235.129" y="30.197" width="1.23" height="1.23"/>
						<rect x="237.17" y="30.197" width="1.23" height="1.23"/>
						<rect x="239.212" y="30.197" width="1.231" height="1.23"/>
						<rect x="241.254" y="30.197" width="1.23" height="1.23"/>
						<rect x="243.295" y="30.197" width="1.23" height="1.23"/>
						<rect x="245.336" y="30.197" width="1.23" height="1.23"/>
						<rect x="247.378" y="30.197" width="1.231" height="1.23"/>
						<rect x="249.42" y="30.197" width="1.23" height="1.23"/>
						<rect x="251.461" y="30.197" width="1.23" height="1.23"/>
						<rect x="253.503" y="30.197" width="1.229" height="1.23"/>
						<rect x="255.544" y="30.197" width="1.231" height="1.23"/>
						<rect x="257.585" y="30.197" width="1.231" height="1.23"/>
						<rect x="259.626" y="30.197" width="1.231" height="1.23"/>
						<rect x="261.668" y="30.197" width="1.23" height="1.23"/>
						<rect x="263.71" y="30.197" width="1.229" height="1.23"/>
						<rect x="265.751" y="30.197" width="1.231" height="1.23"/>
					</g>
				</g>
				<g>
					<path fill="#212121" d="M223.509,35.525h55.095c0.646,0,1.174,0.53,1.174,1.175v3.354c0,0.645-0.529,1.175-1.174,1.175h-55.095
						c-0.645,0-1.175-0.528-1.175-1.175V36.7C222.334,36.054,222.861,35.525,223.509,35.525z"/>
					<circle fill="#43A047" cx="225.21" cy="38.47" r="1.069"/>
					<circle fill="#43A047" cx="227.99" cy="38.47" r="1.069"/>
					<circle fill="#43A047" cx="230.771" cy="38.47" r="1.069"/>
					<circle fill="#55ABDB" cx="274.152" cy="38.47" r="1.069"/>
					<circle fill="#55ABDB" cx="276.934" cy="38.47" r="1.069"/>
					<rect x="233.232" y="36.951" fill="#424242" width="35.646" height="2.852"/>
					<g>
						<rect x="235.129" y="37.772" width="1.23" height="1.231"/>
						<rect x="237.17" y="37.772" width="1.23" height="1.231"/>
						<rect x="239.212" y="37.772" width="1.231" height="1.231"/>
						<rect x="241.254" y="37.772" width="1.23" height="1.231"/>
						<rect x="243.295" y="37.772" width="1.23" height="1.231"/>
						<rect x="245.336" y="37.772" width="1.23" height="1.231"/>
						<rect x="247.378" y="37.772" width="1.231" height="1.231"/>
						<rect x="249.42" y="37.772" width="1.23" height="1.231"/>
						<rect x="251.461" y="37.772" width="1.23" height="1.231"/>
						<rect x="253.503" y="37.772" width="1.229" height="1.231"/>
						<rect x="255.544" y="37.772" width="1.231" height="1.231"/>
						<rect x="257.585" y="37.772" width="1.231" height="1.231"/>
						<rect x="259.626" y="37.772" width="1.231" height="1.231"/>
						<rect x="261.668" y="37.772" width="1.23" height="1.231"/>
						<rect x="263.71" y="37.772" width="1.229" height="1.231"/>
						<rect x="265.751" y="37.772" width="1.231" height="1.231"/>
					</g>
				</g>
				<g>
					<path fill="#212121" d="M223.509,43.1h55.095c0.646,0,1.174,0.53,1.174,1.175v3.354c0,0.646-0.529,1.175-1.174,1.175h-55.095
						c-0.645,0-1.175-0.528-1.175-1.175v-3.354C222.334,43.629,222.861,43.1,223.509,43.1z"/>
					<circle fill="#43A047" cx="225.21" cy="46.044" r="1.068"/>
					<circle fill="#43A047" cx="227.99" cy="46.044" r="1.068"/>
					<circle fill="#43A047" cx="230.771" cy="46.044" r="1.068"/>
					<circle fill="#55ABDB" cx="274.152" cy="46.044" r="1.068"/>
					<circle fill="#55ABDB" cx="276.934" cy="46.044" r="1.068"/>
					<rect x="233.232" y="44.526" fill="#424242" width="35.646" height="2.852"/>
					<g>
						<rect x="235.129" y="45.347" width="1.23" height="1.231"/>
						<rect x="237.17" y="45.347" width="1.23" height="1.231"/>
						<rect x="239.212" y="45.347" width="1.231" height="1.231"/>
						<rect x="241.254" y="45.347" width="1.23" height="1.231"/>
						<rect x="243.295" y="45.347" width="1.23" height="1.231"/>
						<rect x="245.336" y="45.347" width="1.23" height="1.231"/>
						<rect x="247.378" y="45.347" width="1.231" height="1.231"/>
						<rect x="249.42" y="45.347" width="1.23" height="1.231"/>
						<rect x="251.461" y="45.347" width="1.23" height="1.231"/>
						<rect x="253.503" y="45.347" width="1.229" height="1.231"/>
						<rect x="255.544" y="45.347" width="1.231" height="1.231"/>
						<rect x="257.585" y="45.347" width="1.231" height="1.231"/>
						<rect x="259.626" y="45.347" width="1.231" height="1.231"/>
						<rect x="261.668" y="45.347" width="1.23" height="1.231"/>
						<rect x="263.71" y="45.347" width="1.229" height="1.231"/>
						<rect x="265.751" y="45.347" width="1.231" height="1.231"/>
					</g>
				</g>
				<g>
					<path fill="#212121" d="M223.509,50.676h55.095c0.646,0,1.174,0.529,1.174,1.174v3.355c0,0.645-0.529,1.174-1.174,1.174
						h-55.095c-0.645,0-1.175-0.527-1.175-1.174V51.85C222.334,51.206,222.861,50.676,223.509,50.676z"/>
					<circle fill="#43A047" cx="225.21" cy="53.62" r="1.068"/>
					<circle fill="#43A047" cx="227.99" cy="53.62" r="1.068"/>
					<circle fill="#43A047" cx="230.771" cy="53.62" r="1.068"/>
					<circle fill="#55ABDB" cx="274.152" cy="53.62" r="1.068"/>
					<circle fill="#55ABDB" cx="276.934" cy="53.62" r="1.068"/>
					<rect x="233.232" y="52.102" fill="#424242" width="35.646" height="2.852"/>
					<g>
						<rect x="235.129" y="52.922" width="1.23" height="1.232"/>
						<rect x="237.17" y="52.922" width="1.23" height="1.232"/>
						<rect x="239.212" y="52.922" width="1.231" height="1.232"/>
						<rect x="241.254" y="52.922" width="1.23" height="1.232"/>
						<rect x="243.295" y="52.922" width="1.23" height="1.232"/>
						<rect x="245.336" y="52.922" width="1.23" height="1.232"/>
						<rect x="247.378" y="52.922" width="1.231" height="1.232"/>
						<rect x="249.42" y="52.922" width="1.23" height="1.232"/>
						<rect x="251.461" y="52.922" width="1.23" height="1.232"/>
						<rect x="253.503" y="52.922" width="1.229" height="1.232"/>
						<rect x="255.544" y="52.922" width="1.231" height="1.232"/>
						<rect x="257.585" y="52.922" width="1.231" height="1.232"/>
						<rect x="259.626" y="52.922" width="1.231" height="1.232"/>
						<rect x="261.668" y="52.922" width="1.23" height="1.232"/>
						<rect x="263.71" y="52.922" width="1.229" height="1.232"/>
						<rect x="265.751" y="52.922" width="1.231" height="1.232"/>
					</g>
				</g>
				<g>
					<path fill="#212121" d="M223.509,58.251h55.095c0.646,0,1.174,0.53,1.174,1.175v3.354c0,0.646-0.529,1.175-1.174,1.175h-55.095
						c-0.645,0-1.175-0.528-1.175-1.175v-3.354C222.334,58.781,222.861,58.251,223.509,58.251z"/>
					<circle fill="#43A047" cx="225.21" cy="61.196" r="1.068"/>
					<circle fill="#43A047" cx="227.99" cy="61.196" r="1.068"/>
					<circle fill="#43A047" cx="230.771" cy="61.196" r="1.068"/>
					<circle fill="#55ABDB" cx="274.152" cy="61.196" r="1.068"/>
					<circle fill="#55ABDB" cx="276.934" cy="61.196" r="1.068"/>
					<rect x="233.232" y="59.677" fill="#424242" width="35.646" height="2.852"/>
					<g>
						<rect x="235.129" y="60.499" width="1.23" height="1.231"/>
						<rect x="237.17" y="60.499" width="1.23" height="1.231"/>
						<rect x="239.212" y="60.499" width="1.231" height="1.231"/>
						<rect x="241.254" y="60.499" width="1.23" height="1.231"/>
						<rect x="243.295" y="60.499" width="1.23" height="1.231"/>
						<rect x="245.336" y="60.499" width="1.23" height="1.231"/>
						<rect x="247.378" y="60.499" width="1.231" height="1.231"/>
						<rect x="249.42" y="60.499" width="1.23" height="1.231"/>
						<rect x="251.461" y="60.499" width="1.23" height="1.231"/>
						<rect x="253.503" y="60.499" width="1.229" height="1.231"/>
						<rect x="255.544" y="60.499" width="1.231" height="1.231"/>
						<rect x="257.585" y="60.499" width="1.231" height="1.231"/>
						<rect x="259.626" y="60.499" width="1.231" height="1.231"/>
						<rect x="261.668" y="60.499" width="1.23" height="1.231"/>
						<rect x="263.71" y="60.499" width="1.229" height="1.231"/>
						<rect x="265.751" y="60.499" width="1.231" height="1.231"/>
					</g>
				</g>
				<g>
					<path fill="#212121" d="M223.509,65.827h55.095c0.646,0,1.174,0.53,1.174,1.175v3.354c0,0.646-0.529,1.175-1.174,1.175h-55.095
						c-0.645,0-1.175-0.528-1.175-1.175v-3.354C222.334,66.356,222.861,65.827,223.509,65.827z"/>
					<circle fill="#43A047" cx="225.21" cy="68.771" r="1.068"/>
					<circle fill="#43A047" cx="227.99" cy="68.771" r="1.068"/>
					<circle fill="#43A047" cx="230.771" cy="68.771" r="1.068"/>
					<circle fill="#55ABDB" cx="274.152" cy="68.771" r="1.068"/>
					<circle fill="#55ABDB" cx="276.934" cy="68.771" r="1.068"/>
					<rect x="233.232" y="67.252" fill="#424242" width="35.646" height="2.852"/>
					<g>
						<rect x="235.129" y="68.074" width="1.23" height="1.231"/>
						<rect x="237.17" y="68.074" width="1.23" height="1.231"/>
						<rect x="239.212" y="68.074" width="1.231" height="1.231"/>
						<rect x="241.254" y="68.074" width="1.23" height="1.231"/>
						<rect x="243.295" y="68.074" width="1.23" height="1.231"/>
						<rect x="245.336" y="68.074" width="1.23" height="1.231"/>
						<rect x="247.378" y="68.074" width="1.231" height="1.231"/>
						<rect x="249.42" y="68.074" width="1.23" height="1.231"/>
						<rect x="251.461" y="68.074" width="1.23" height="1.231"/>
						<rect x="253.503" y="68.074" width="1.229" height="1.231"/>
						<rect x="255.544" y="68.074" width="1.231" height="1.231"/>
						<rect x="257.585" y="68.074" width="1.231" height="1.231"/>
						<rect x="259.626" y="68.074" width="1.231" height="1.231"/>
						<rect x="261.668" y="68.074" width="1.23" height="1.231"/>
						<rect x="263.71" y="68.074" width="1.229" height="1.231"/>
						<rect x="265.751" y="68.074" width="1.231" height="1.231"/>
					</g>
				</g>
				<g>
					<path fill="#212121" d="M223.509,73.402h55.095c0.646,0,1.174,0.53,1.174,1.175v3.354c0,0.646-0.529,1.175-1.174,1.175h-55.095
						c-0.645,0-1.175-0.528-1.175-1.175v-3.354C222.334,73.931,222.861,73.402,223.509,73.402z"/>
					<circle fill="#43A047" cx="225.21" cy="76.346" r="1.068"/>
					<circle fill="#43A047" cx="227.99" cy="76.346" r="1.068"/>
					<circle fill="#43A047" cx="230.771" cy="76.346" r="1.068"/>
					<circle fill="#55ABDB" cx="274.152" cy="76.346" r="1.068"/>
					<circle fill="#55ABDB" cx="276.934" cy="76.346" r="1.068"/>
					<rect x="233.232" y="74.828" fill="#424242" width="35.646" height="2.852"/>
					<g>
						<rect x="235.129" y="75.649" width="1.23" height="1.231"/>
						<rect x="237.17" y="75.649" width="1.23" height="1.231"/>
						<rect x="239.212" y="75.649" width="1.231" height="1.231"/>
						<rect x="241.254" y="75.649" width="1.23" height="1.231"/>
						<rect x="243.295" y="75.649" width="1.23" height="1.231"/>
						<rect x="245.336" y="75.649" width="1.23" height="1.231"/>
						<rect x="247.378" y="75.649" width="1.231" height="1.231"/>
						<rect x="249.42" y="75.649" width="1.23" height="1.231"/>
						<rect x="251.461" y="75.649" width="1.23" height="1.231"/>
						<rect x="253.503" y="75.649" width="1.229" height="1.231"/>
						<rect x="255.544" y="75.649" width="1.231" height="1.231"/>
						<rect x="257.585" y="75.649" width="1.231" height="1.231"/>
						<rect x="259.626" y="75.649" width="1.231" height="1.231"/>
						<rect x="261.668" y="75.649" width="1.23" height="1.231"/>
						<rect x="263.71" y="75.649" width="1.229" height="1.231"/>
						<rect x="265.751" y="75.649" width="1.231" height="1.231"/>
					</g>
				</g>
				<g>
					<path fill="#212121" d="M223.509,80.977h55.095c0.646,0,1.174,0.531,1.174,1.176v3.354c0,0.646-0.529,1.176-1.174,1.176
						h-55.095c-0.645,0-1.175-0.529-1.175-1.176v-3.354C222.334,81.506,222.861,80.977,223.509,80.977z"/>
					<circle fill="#43A047" cx="225.21" cy="83.922" r="1.068"/>
					<circle fill="#43A047" cx="227.99" cy="83.922" r="1.068"/>
					<circle fill="#43A047" cx="230.771" cy="83.922" r="1.068"/>
					<circle fill="#55ABDB" cx="274.152" cy="83.922" r="1.068"/>
					<circle fill="#55ABDB" cx="276.934" cy="83.922" r="1.068"/>
					<rect x="233.232" y="82.403" fill="#424242" width="35.646" height="2.852"/>
					<g>
						<rect x="235.129" y="83.225" width="1.23" height="1.23"/>
						<rect x="237.17" y="83.225" width="1.23" height="1.23"/>
						<rect x="239.212" y="83.225" width="1.231" height="1.23"/>
						<rect x="241.254" y="83.225" width="1.23" height="1.23"/>
						<rect x="243.295" y="83.225" width="1.23" height="1.23"/>
						<rect x="245.336" y="83.225" width="1.23" height="1.23"/>
						<rect x="247.378" y="83.225" width="1.231" height="1.23"/>
						<rect x="249.42" y="83.225" width="1.23" height="1.23"/>
						<rect x="251.461" y="83.225" width="1.23" height="1.23"/>
						<rect x="253.503" y="83.225" width="1.229" height="1.23"/>
						<rect x="255.544" y="83.225" width="1.231" height="1.23"/>
						<rect x="257.585" y="83.225" width="1.231" height="1.23"/>
						<rect x="259.626" y="83.225" width="1.231" height="1.23"/>
						<rect x="261.668" y="83.225" width="1.23" height="1.23"/>
						<rect x="263.71" y="83.225" width="1.229" height="1.23"/>
						<rect x="265.751" y="83.225" width="1.231" height="1.23"/>
					</g>
				</g>
				<g>
					<path fill="#212121" d="M223.509,88.553h55.095c0.646,0,1.174,0.53,1.174,1.175v3.354c0,0.646-0.529,1.175-1.174,1.175h-55.095
						c-0.645,0-1.175-0.528-1.175-1.175v-3.354C222.334,89.083,222.861,88.553,223.509,88.553z"/>
					<circle fill="#43A047" cx="225.21" cy="91.498" r="1.068"/>
					<circle fill="#43A047" cx="227.99" cy="91.498" r="1.068"/>
					<circle fill="#43A047" cx="230.771" cy="91.498" r="1.068"/>
					<circle fill="#55ABDB" cx="274.152" cy="91.498" r="1.068"/>
					<circle fill="#55ABDB" cx="276.934" cy="91.498" r="1.068"/>
					<rect x="233.232" y="89.979" fill="#424242" width="35.646" height="2.852"/>
					<g>
						<rect x="235.129" y="90.8" width="1.23" height="1.231"/>
						<rect x="237.17" y="90.8" width="1.23" height="1.231"/>
						<rect x="239.212" y="90.8" width="1.231" height="1.231"/>
						<rect x="241.254" y="90.8" width="1.23" height="1.231"/>
						<rect x="243.295" y="90.8" width="1.23" height="1.231"/>
						<rect x="245.336" y="90.8" width="1.23" height="1.231"/>
						<rect x="247.378" y="90.8" width="1.231" height="1.231"/>
						<rect x="249.42" y="90.8" width="1.23" height="1.231"/>
						<rect x="251.461" y="90.8" width="1.23" height="1.231"/>
						<rect x="253.503" y="90.8" width="1.229" height="1.231"/>
						<rect x="255.544" y="90.8" width="1.231" height="1.231"/>
						<rect x="257.585" y="90.8" width="1.231" height="1.231"/>
						<rect x="259.626" y="90.8" width="1.231" height="1.231"/>
						<rect x="261.668" y="90.8" width="1.23" height="1.231"/>
						<rect x="263.71" y="90.8" width="1.229" height="1.231"/>
						<rect x="265.751" y="90.8" width="1.231" height="1.231"/>
					</g>
				</g>
				<g>
					<path fill="#212121" d="M223.509,96.128h55.095c0.646,0,1.174,0.53,1.174,1.175v3.354c0,0.646-0.529,1.175-1.174,1.175h-55.095
						c-0.645,0-1.175-0.528-1.175-1.175v-3.354C222.334,96.658,222.861,96.128,223.509,96.128z"/>
					<circle fill="#43A047" cx="225.21" cy="99.073" r="1.068"/>
					<circle fill="#43A047" cx="227.99" cy="99.073" r="1.068"/>
					<circle fill="#43A047" cx="230.771" cy="99.073" r="1.068"/>
					<circle fill="#55ABDB" cx="274.152" cy="99.073" r="1.068"/>
					<circle fill="#55ABDB" cx="276.934" cy="99.073" r="1.068"/>
					<rect x="233.232" y="97.554" fill="#424242" width="35.646" height="2.852"/>
					<g>
						<rect x="235.129" y="98.375" width="1.23" height="1.231"/>
						<rect x="237.17" y="98.375" width="1.23" height="1.231"/>
						<rect x="239.212" y="98.375" width="1.231" height="1.231"/>
						<rect x="241.254" y="98.375" width="1.23" height="1.231"/>
						<rect x="243.295" y="98.375" width="1.23" height="1.231"/>
						<rect x="245.336" y="98.375" width="1.23" height="1.231"/>
						<rect x="247.378" y="98.375" width="1.231" height="1.231"/>
						<rect x="249.42" y="98.375" width="1.23" height="1.231"/>
						<rect x="251.461" y="98.375" width="1.23" height="1.231"/>
						<rect x="253.503" y="98.375" width="1.229" height="1.231"/>
						<rect x="255.544" y="98.375" width="1.231" height="1.231"/>
						<rect x="257.585" y="98.375" width="1.231" height="1.231"/>
						<rect x="259.626" y="98.375" width="1.231" height="1.231"/>
						<rect x="261.668" y="98.375" width="1.23" height="1.231"/>
						<rect x="263.71" y="98.375" width="1.229" height="1.231"/>
						<rect x="265.751" y="98.375" width="1.231" height="1.231"/>
					</g>
				</g>
			</g>
		</g>
	</g>
	<g>
		<path fill="#757575" d="M36.576,136.069h-5.264v-5.265h5.264V136.069L36.576,136.069z M36.576,262.406h-5.264v-5.264h5.264
			V262.406L36.576,262.406z M36.576,251.879h-5.264v-5.264h5.264V251.879L36.576,251.879z M36.576,241.352h-5.264v-5.266h5.264
			V241.352L36.576,241.352z M36.576,230.824h-5.264v-5.266h5.264V230.824L36.576,230.824z M36.576,220.295h-5.264v-5.264h5.264
			V220.295L36.576,220.295z M36.576,209.768h-5.264v-5.264h5.264V209.768L36.576,209.768z M36.576,199.236h-5.264v-5.262h5.264
			V199.236L36.576,199.236z M36.576,188.709h-5.264v-5.262h5.264V188.709L36.576,188.709z M36.576,178.182h-5.264v-5.264h5.264
			V178.182L36.576,178.182z M36.576,167.654h-5.264v-5.264h5.264V167.654L36.576,167.654z M36.576,157.125h-5.264v-5.264h5.264
			V157.125L36.576,157.125z M36.576,146.596h-5.264v-5.262h5.264V146.596z"/>
		<g>
			<polygon fill="#616161" points="2.611,0 65.277,0 67.889,0 67.889,2.611 67.889,122.722 67.889,125.333 65.277,125.333 
				2.611,125.333 0,125.333 0,122.722 0,2.611 0,0 			"/>
			<rect y="111.5" fill="#55ABDB" width="67.888" height="1.118"/>
			<rect y="115.344" fill="#212121" width="67.888" height="0.913"/>
			<rect y="118.721" fill="#55ABDB" width="67.888" height="0.914"/>
			<circle fill="#FDFBFC" cx="33.944" cy="107.054" r="2.611"/>
			<g>
				<g>
					<path fill="#212121" d="M6.397,5.223H61.49c0.646,0,1.176,0.53,1.176,1.175v3.354c0,0.645-0.531,1.175-1.176,1.175H6.397
						c-0.645,0-1.175-0.528-1.175-1.175V6.398C5.222,5.752,5.75,5.223,6.397,5.223z"/>
					<circle fill="#43A047" cx="8.098" cy="8.168" r="1.069"/>
					<circle fill="#43A047" cx="10.878" cy="8.168" r="1.069"/>
					<circle fill="#43A047" cx="13.659" cy="8.168" r="1.069"/>
					<circle fill="#55ABDB" cx="57.042" cy="8.168" r="1.069"/>
					<circle fill="#55ABDB" cx="59.822" cy="8.168" r="1.069"/>
					<rect x="16.121" y="6.649" fill="#424242" width="35.646" height="2.852"/>
					<g>
						<rect x="18.017" y="7.47" width="1.23" height="1.231"/>
						<rect x="20.058" y="7.47" width="1.231" height="1.231"/>
						<rect x="22.1" y="7.47" width="1.231" height="1.231"/>
						<rect x="24.142" y="7.47" width="1.23" height="1.231"/>
						<rect x="26.183" y="7.47" width="1.231" height="1.231"/>
						<rect x="28.224" y="7.47" width="1.231" height="1.231"/>
						<rect x="30.266" y="7.47" width="1.231" height="1.231"/>
						<rect x="32.308" y="7.47" width="1.23" height="1.231"/>
						<rect x="34.349" y="7.47" width="1.23" height="1.231"/>
						<rect x="36.391" y="7.47" width="1.23" height="1.231"/>
						<rect x="38.432" y="7.47" width="1.231" height="1.231"/>
						<rect x="40.473" y="7.47" width="1.231" height="1.231"/>
						<rect x="42.514" y="7.47" width="1.231" height="1.231"/>
						<rect x="44.556" y="7.47" width="1.231" height="1.231"/>
						<rect x="46.598" y="7.47" width="1.23" height="1.231"/>
						<rect x="48.639" y="7.47" width="1.231" height="1.231"/>
					</g>
				</g>
				<g>
					<path fill="#212121" d="M6.397,12.798H61.49c0.646,0,1.176,0.53,1.176,1.175v3.354c0,0.645-0.531,1.175-1.176,1.175H6.397
						c-0.645,0-1.175-0.528-1.175-1.175v-3.354C5.222,13.327,5.75,12.798,6.397,12.798z"/>
					<circle fill="#43A047" cx="8.098" cy="15.743" r="1.069"/>
					<circle fill="#43A047" cx="10.878" cy="15.743" r="1.069"/>
					<circle fill="#43A047" cx="13.659" cy="15.743" r="1.069"/>
					<circle fill="#55ABDB" cx="57.042" cy="15.743" r="1.069"/>
					<circle fill="#55ABDB" cx="59.822" cy="15.743" r="1.069"/>
					<rect x="16.121" y="14.224" fill="#424242" width="35.646" height="2.852"/>
					<g>
						<rect x="18.017" y="15.045" width="1.23" height="1.231"/>
						<rect x="20.058" y="15.045" width="1.231" height="1.231"/>
						<rect x="22.1" y="15.045" width="1.231" height="1.231"/>
						<rect x="24.142" y="15.045" width="1.23" height="1.231"/>
						<rect x="26.183" y="15.045" width="1.231" height="1.231"/>
						<rect x="28.224" y="15.045" width="1.231" height="1.231"/>
						<rect x="30.266" y="15.045" width="1.231" height="1.231"/>
						<rect x="32.308" y="15.045" width="1.23" height="1.231"/>
						<rect x="34.349" y="15.045" width="1.23" height="1.231"/>
						<rect x="36.391" y="15.045" width="1.23" height="1.231"/>
						<rect x="38.432" y="15.045" width="1.231" height="1.231"/>
						<rect x="40.473" y="15.045" width="1.231" height="1.231"/>
						<rect x="42.514" y="15.045" width="1.231" height="1.231"/>
						<rect x="44.556" y="15.045" width="1.231" height="1.231"/>
						<rect x="46.598" y="15.045" width="1.23" height="1.231"/>
						<rect x="48.639" y="15.045" width="1.231" height="1.231"/>
					</g>
				</g>
				<g>
					<path fill="#212121" d="M6.397,20.374H61.49c0.646,0,1.176,0.529,1.176,1.176v3.354c0,0.646-0.531,1.176-1.176,1.176H6.397
						c-0.645,0-1.175-0.529-1.175-1.176V21.55C5.222,20.903,5.75,20.374,6.397,20.374z"/>
					<circle fill="#43A047" cx="8.098" cy="23.319" r="1.068"/>
					<circle fill="#43A047" cx="10.878" cy="23.319" r="1.068"/>
					<circle fill="#43A047" cx="13.659" cy="23.319" r="1.068"/>
					<circle fill="#55ABDB" cx="57.042" cy="23.319" r="1.068"/>
					<circle fill="#55ABDB" cx="59.822" cy="23.319" r="1.068"/>
					<rect x="16.121" y="21.799" fill="#424242" width="35.646" height="2.852"/>
					<g>
						<rect x="18.017" y="22.622" width="1.23" height="1.23"/>
						<rect x="20.058" y="22.622" width="1.231" height="1.23"/>
						<rect x="22.1" y="22.622" width="1.231" height="1.23"/>
						<rect x="24.142" y="22.622" width="1.23" height="1.23"/>
						<rect x="26.183" y="22.622" width="1.231" height="1.23"/>
						<rect x="28.224" y="22.622" width="1.231" height="1.23"/>
						<rect x="30.266" y="22.622" width="1.231" height="1.23"/>
						<rect x="32.308" y="22.622" width="1.23" height="1.23"/>
						<rect x="34.349" y="22.622" width="1.23" height="1.23"/>
						<rect x="36.391" y="22.622" width="1.23" height="1.23"/>
						<rect x="38.432" y="22.622" width="1.231" height="1.23"/>
						<rect x="40.473" y="22.622" width="1.231" height="1.23"/>
						<rect x="42.514" y="22.622" width="1.231" height="1.23"/>
						<rect x="44.556" y="22.622" width="1.231" height="1.23"/>
						<rect x="46.598" y="22.622" width="1.23" height="1.23"/>
						<rect x="48.639" y="22.622" width="1.231" height="1.23"/>
					</g>
				</g>
				<g>
					<path fill="#212121" d="M6.397,27.95H61.49c0.646,0,1.176,0.53,1.176,1.175v3.354c0,0.645-0.531,1.175-1.176,1.175H6.397
						c-0.645,0-1.175-0.528-1.175-1.175v-3.354C5.222,28.479,5.75,27.95,6.397,27.95z"/>
					<circle fill="#43A047" cx="8.098" cy="30.895" r="1.069"/>
					<circle fill="#43A047" cx="10.878" cy="30.895" r="1.069"/>
					<circle fill="#43A047" cx="13.659" cy="30.895" r="1.069"/>
					<circle fill="#55ABDB" cx="57.042" cy="30.895" r="1.069"/>
					<circle fill="#55ABDB" cx="59.822" cy="30.895" r="1.069"/>
					<rect x="16.121" y="29.375" fill="#424242" width="35.646" height="2.852"/>
					<g>
						<rect x="18.017" y="30.197" width="1.23" height="1.23"/>
						<rect x="20.058" y="30.197" width="1.231" height="1.23"/>
						<rect x="22.1" y="30.197" width="1.231" height="1.23"/>
						<rect x="24.142" y="30.197" width="1.23" height="1.23"/>
						<rect x="26.183" y="30.197" width="1.231" height="1.23"/>
						<rect x="28.224" y="30.197" width="1.231" height="1.23"/>
						<rect x="30.266" y="30.197" width="1.231" height="1.23"/>
						<rect x="32.308" y="30.197" width="1.23" height="1.23"/>
						<rect x="34.349" y="30.197" width="1.23" height="1.23"/>
						<rect x="36.391" y="30.197" width="1.23" height="1.23"/>
						<rect x="38.432" y="30.197" width="1.231" height="1.23"/>
						<rect x="40.473" y="30.197" width="1.231" height="1.23"/>
						<rect x="42.514" y="30.197" width="1.231" height="1.23"/>
						<rect x="44.556" y="30.197" width="1.231" height="1.23"/>
						<rect x="46.598" y="30.197" width="1.23" height="1.23"/>
						<rect x="48.639" y="30.197" width="1.231" height="1.23"/>
					</g>
				</g>
				<g>
					<path fill="#212121" d="M6.397,35.525H61.49c0.646,0,1.176,0.53,1.176,1.175v3.354c0,0.645-0.531,1.175-1.176,1.175H6.397
						c-0.645,0-1.175-0.528-1.175-1.175V36.7C5.222,36.054,5.75,35.525,6.397,35.525z"/>
					<circle fill="#43A047" cx="8.098" cy="38.47" r="1.069"/>
					<circle fill="#43A047" cx="10.878" cy="38.47" r="1.069"/>
					<circle fill="#43A047" cx="13.659" cy="38.47" r="1.069"/>
					<circle fill="#55ABDB" cx="57.042" cy="38.47" r="1.069"/>
					<circle fill="#55ABDB" cx="59.822" cy="38.47" r="1.069"/>
					<rect x="16.121" y="36.951" fill="#424242" width="35.646" height="2.852"/>
					<g>
						<rect x="18.017" y="37.772" width="1.23" height="1.231"/>
						<rect x="20.058" y="37.772" width="1.231" height="1.231"/>
						<rect x="22.1" y="37.772" width="1.231" height="1.231"/>
						<rect x="24.142" y="37.772" width="1.23" height="1.231"/>
						<rect x="26.183" y="37.772" width="1.231" height="1.231"/>
						<rect x="28.224" y="37.772" width="1.231" height="1.231"/>
						<rect x="30.266" y="37.772" width="1.231" height="1.231"/>
						<rect x="32.308" y="37.772" width="1.23" height="1.231"/>
						<rect x="34.349" y="37.772" width="1.23" height="1.231"/>
						<rect x="36.391" y="37.772" width="1.23" height="1.231"/>
						<rect x="38.432" y="37.772" width="1.231" height="1.231"/>
						<rect x="40.473" y="37.772" width="1.231" height="1.231"/>
						<rect x="42.514" y="37.772" width="1.231" height="1.231"/>
						<rect x="44.556" y="37.772" width="1.231" height="1.231"/>
						<rect x="46.598" y="37.772" width="1.23" height="1.231"/>
						<rect x="48.639" y="37.772" width="1.231" height="1.231"/>
					</g>
				</g>
				<g>
					<path fill="#212121" d="M6.397,43.1H61.49c0.646,0,1.176,0.53,1.176,1.175v3.354c0,0.646-0.531,1.175-1.176,1.175H6.397
						c-0.645,0-1.175-0.528-1.175-1.175v-3.354C5.222,43.629,5.75,43.1,6.397,43.1z"/>
					<circle fill="#43A047" cx="8.098" cy="46.044" r="1.068"/>
					<circle fill="#43A047" cx="10.878" cy="46.044" r="1.068"/>
					<circle fill="#43A047" cx="13.659" cy="46.044" r="1.068"/>
					<circle fill="#55ABDB" cx="57.042" cy="46.044" r="1.068"/>
					<circle fill="#55ABDB" cx="59.822" cy="46.044" r="1.068"/>
					<rect x="16.121" y="44.526" fill="#424242" width="35.646" height="2.852"/>
					<g>
						<rect x="18.017" y="45.347" width="1.23" height="1.231"/>
						<rect x="20.058" y="45.347" width="1.231" height="1.231"/>
						<rect x="22.1" y="45.347" width="1.231" height="1.231"/>
						<rect x="24.142" y="45.347" width="1.23" height="1.231"/>
						<rect x="26.183" y="45.347" width="1.231" height="1.231"/>
						<rect x="28.224" y="45.347" width="1.231" height="1.231"/>
						<rect x="30.266" y="45.347" width="1.231" height="1.231"/>
						<rect x="32.308" y="45.347" width="1.23" height="1.231"/>
						<rect x="34.349" y="45.347" width="1.23" height="1.231"/>
						<rect x="36.391" y="45.347" width="1.23" height="1.231"/>
						<rect x="38.432" y="45.347" width="1.231" height="1.231"/>
						<rect x="40.473" y="45.347" width="1.231" height="1.231"/>
						<rect x="42.514" y="45.347" width="1.231" height="1.231"/>
						<rect x="44.556" y="45.347" width="1.231" height="1.231"/>
						<rect x="46.598" y="45.347" width="1.23" height="1.231"/>
						<rect x="48.639" y="45.347" width="1.231" height="1.231"/>
					</g>
				</g>
				<g>
					<path fill="#212121" d="M6.397,50.676H61.49c0.646,0,1.176,0.529,1.176,1.174v3.355c0,0.645-0.531,1.174-1.176,1.174H6.397
						c-0.645,0-1.175-0.527-1.175-1.174V51.85C5.222,51.206,5.75,50.676,6.397,50.676z"/>
					<circle fill="#43A047" cx="8.098" cy="53.62" r="1.068"/>
					<circle fill="#43A047" cx="10.878" cy="53.62" r="1.068"/>
					<circle fill="#43A047" cx="13.659" cy="53.62" r="1.068"/>
					<circle fill="#55ABDB" cx="57.042" cy="53.62" r="1.068"/>
					<circle fill="#55ABDB" cx="59.822" cy="53.62" r="1.068"/>
					<rect x="16.121" y="52.102" fill="#424242" width="35.646" height="2.852"/>
					<g>
						<rect x="18.017" y="52.922" width="1.23" height="1.232"/>
						<rect x="20.058" y="52.922" width="1.231" height="1.232"/>
						<rect x="22.1" y="52.922" width="1.231" height="1.232"/>
						<rect x="24.142" y="52.922" width="1.23" height="1.232"/>
						<rect x="26.183" y="52.922" width="1.231" height="1.232"/>
						<rect x="28.224" y="52.922" width="1.231" height="1.232"/>
						<rect x="30.266" y="52.922" width="1.231" height="1.232"/>
						<rect x="32.308" y="52.922" width="1.23" height="1.232"/>
						<rect x="34.349" y="52.922" width="1.23" height="1.232"/>
						<rect x="36.391" y="52.922" width="1.23" height="1.232"/>
						<rect x="38.432" y="52.922" width="1.231" height="1.232"/>
						<rect x="40.473" y="52.922" width="1.231" height="1.232"/>
						<rect x="42.514" y="52.922" width="1.231" height="1.232"/>
						<rect x="44.556" y="52.922" width="1.231" height="1.232"/>
						<rect x="46.598" y="52.922" width="1.23" height="1.232"/>
						<rect x="48.639" y="52.922" width="1.231" height="1.232"/>
					</g>
				</g>
				<g>
					<path fill="#212121" d="M6.397,58.251H61.49c0.646,0,1.176,0.53,1.176,1.175v3.354c0,0.646-0.531,1.175-1.176,1.175H6.397
						c-0.645,0-1.175-0.528-1.175-1.175v-3.354C5.222,58.781,5.75,58.251,6.397,58.251z"/>
					<circle fill="#43A047" cx="8.098" cy="61.196" r="1.068"/>
					<circle fill="#43A047" cx="10.878" cy="61.196" r="1.068"/>
					<circle fill="#43A047" cx="13.659" cy="61.196" r="1.068"/>
					<circle fill="#55ABDB" cx="57.042" cy="61.196" r="1.068"/>
					<circle fill="#55ABDB" cx="59.822" cy="61.196" r="1.068"/>
					<rect x="16.121" y="59.677" fill="#424242" width="35.646" height="2.852"/>
					<g>
						<rect x="18.017" y="60.499" width="1.23" height="1.231"/>
						<rect x="20.058" y="60.499" width="1.231" height="1.231"/>
						<rect x="22.1" y="60.499" width="1.231" height="1.231"/>
						<rect x="24.142" y="60.499" width="1.23" height="1.231"/>
						<rect x="26.183" y="60.499" width="1.231" height="1.231"/>
						<rect x="28.224" y="60.499" width="1.231" height="1.231"/>
						<rect x="30.266" y="60.499" width="1.231" height="1.231"/>
						<rect x="32.308" y="60.499" width="1.23" height="1.231"/>
						<rect x="34.349" y="60.499" width="1.23" height="1.231"/>
						<rect x="36.391" y="60.499" width="1.23" height="1.231"/>
						<rect x="38.432" y="60.499" width="1.231" height="1.231"/>
						<rect x="40.473" y="60.499" width="1.231" height="1.231"/>
						<rect x="42.514" y="60.499" width="1.231" height="1.231"/>
						<rect x="44.556" y="60.499" width="1.231" height="1.231"/>
						<rect x="46.598" y="60.499" width="1.23" height="1.231"/>
						<rect x="48.639" y="60.499" width="1.231" height="1.231"/>
					</g>
				</g>
				<g>
					<path fill="#212121" d="M6.397,65.827H61.49c0.646,0,1.176,0.53,1.176,1.175v3.354c0,0.646-0.531,1.175-1.176,1.175H6.397
						c-0.645,0-1.175-0.528-1.175-1.175v-3.354C5.222,66.356,5.75,65.827,6.397,65.827z"/>
					<circle fill="#43A047" cx="8.098" cy="68.771" r="1.068"/>
					<circle fill="#43A047" cx="10.878" cy="68.771" r="1.068"/>
					<circle fill="#43A047" cx="13.659" cy="68.771" r="1.068"/>
					<circle fill="#55ABDB" cx="57.042" cy="68.771" r="1.068"/>
					<circle fill="#55ABDB" cx="59.822" cy="68.771" r="1.068"/>
					<rect x="16.121" y="67.252" fill="#424242" width="35.646" height="2.852"/>
					<g>
						<rect x="18.017" y="68.074" width="1.23" height="1.231"/>
						<rect x="20.058" y="68.074" width="1.231" height="1.231"/>
						<rect x="22.1" y="68.074" width="1.231" height="1.231"/>
						<rect x="24.142" y="68.074" width="1.23" height="1.231"/>
						<rect x="26.183" y="68.074" width="1.231" height="1.231"/>
						<rect x="28.224" y="68.074" width="1.231" height="1.231"/>
						<rect x="30.266" y="68.074" width="1.231" height="1.231"/>
						<rect x="32.308" y="68.074" width="1.23" height="1.231"/>
						<rect x="34.349" y="68.074" width="1.23" height="1.231"/>
						<rect x="36.391" y="68.074" width="1.23" height="1.231"/>
						<rect x="38.432" y="68.074" width="1.231" height="1.231"/>
						<rect x="40.473" y="68.074" width="1.231" height="1.231"/>
						<rect x="42.514" y="68.074" width="1.231" height="1.231"/>
						<rect x="44.556" y="68.074" width="1.231" height="1.231"/>
						<rect x="46.598" y="68.074" width="1.23" height="1.231"/>
						<rect x="48.639" y="68.074" width="1.231" height="1.231"/>
					</g>
				</g>
				<g>
					<path fill="#212121" d="M6.397,73.402H61.49c0.646,0,1.176,0.53,1.176,1.175v3.354c0,0.646-0.531,1.175-1.176,1.175H6.397
						c-0.645,0-1.175-0.528-1.175-1.175v-3.354C5.222,73.931,5.75,73.402,6.397,73.402z"/>
					<circle fill="#43A047" cx="8.098" cy="76.346" r="1.068"/>
					<circle fill="#43A047" cx="10.878" cy="76.346" r="1.068"/>
					<circle fill="#43A047" cx="13.659" cy="76.346" r="1.068"/>
					<circle fill="#55ABDB" cx="57.042" cy="76.346" r="1.068"/>
					<circle fill="#55ABDB" cx="59.822" cy="76.346" r="1.068"/>
					<rect x="16.121" y="74.828" fill="#424242" width="35.646" height="2.852"/>
					<g>
						<rect x="18.017" y="75.649" width="1.23" height="1.231"/>
						<rect x="20.058" y="75.649" width="1.231" height="1.231"/>
						<rect x="22.1" y="75.649" width="1.231" height="1.231"/>
						<rect x="24.142" y="75.649" width="1.23" height="1.231"/>
						<rect x="26.183" y="75.649" width="1.231" height="1.231"/>
						<rect x="28.224" y="75.649" width="1.231" height="1.231"/>
						<rect x="30.266" y="75.649" width="1.231" height="1.231"/>
						<rect x="32.308" y="75.649" width="1.23" height="1.231"/>
						<rect x="34.349" y="75.649" width="1.23" height="1.231"/>
						<rect x="36.391" y="75.649" width="1.23" height="1.231"/>
						<rect x="38.432" y="75.649" width="1.231" height="1.231"/>
						<rect x="40.473" y="75.649" width="1.231" height="1.231"/>
						<rect x="42.514" y="75.649" width="1.231" height="1.231"/>
						<rect x="44.556" y="75.649" width="1.231" height="1.231"/>
						<rect x="46.598" y="75.649" width="1.23" height="1.231"/>
						<rect x="48.639" y="75.649" width="1.231" height="1.231"/>
					</g>
				</g>
				<g>
					<path fill="#212121" d="M6.397,80.977H61.49c0.646,0,1.176,0.531,1.176,1.176v3.354c0,0.646-0.531,1.176-1.176,1.176H6.397
						c-0.645,0-1.175-0.529-1.175-1.176v-3.354C5.222,81.506,5.75,80.977,6.397,80.977z"/>
					<circle fill="#43A047" cx="8.098" cy="83.922" r="1.068"/>
					<circle fill="#43A047" cx="10.878" cy="83.922" r="1.068"/>
					<circle fill="#43A047" cx="13.659" cy="83.922" r="1.068"/>
					<circle fill="#55ABDB" cx="57.042" cy="83.922" r="1.068"/>
					<circle fill="#55ABDB" cx="59.822" cy="83.922" r="1.068"/>
					<rect x="16.121" y="82.403" fill="#424242" width="35.646" height="2.852"/>
					<g>
						<rect x="18.017" y="83.225" width="1.23" height="1.23"/>
						<rect x="20.058" y="83.225" width="1.231" height="1.23"/>
						<rect x="22.1" y="83.225" width="1.231" height="1.23"/>
						<rect x="24.142" y="83.225" width="1.23" height="1.23"/>
						<rect x="26.183" y="83.225" width="1.231" height="1.23"/>
						<rect x="28.224" y="83.225" width="1.231" height="1.23"/>
						<rect x="30.266" y="83.225" width="1.231" height="1.23"/>
						<rect x="32.308" y="83.225" width="1.23" height="1.23"/>
						<rect x="34.349" y="83.225" width="1.23" height="1.23"/>
						<rect x="36.391" y="83.225" width="1.23" height="1.23"/>
						<rect x="38.432" y="83.225" width="1.231" height="1.23"/>
						<rect x="40.473" y="83.225" width="1.231" height="1.23"/>
						<rect x="42.514" y="83.225" width="1.231" height="1.23"/>
						<rect x="44.556" y="83.225" width="1.231" height="1.23"/>
						<rect x="46.598" y="83.225" width="1.23" height="1.23"/>
						<rect x="48.639" y="83.225" width="1.231" height="1.23"/>
					</g>
				</g>
				<g>
					<path fill="#212121" d="M6.397,88.553H61.49c0.646,0,1.176,0.53,1.176,1.175v3.354c0,0.646-0.531,1.175-1.176,1.175H6.397
						c-0.645,0-1.175-0.528-1.175-1.175v-3.354C5.222,89.083,5.75,88.553,6.397,88.553z"/>
					<circle fill="#43A047" cx="8.098" cy="91.498" r="1.068"/>
					<circle fill="#43A047" cx="10.878" cy="91.498" r="1.068"/>
					<circle fill="#43A047" cx="13.659" cy="91.498" r="1.068"/>
					<circle fill="#55ABDB" cx="57.042" cy="91.498" r="1.068"/>
					<circle fill="#55ABDB" cx="59.822" cy="91.498" r="1.068"/>
					<rect x="16.121" y="89.979" fill="#424242" width="35.646" height="2.852"/>
					<g>
						<rect x="18.017" y="90.8" width="1.23" height="1.231"/>
						<rect x="20.058" y="90.8" width="1.231" height="1.231"/>
						<rect x="22.1" y="90.8" width="1.231" height="1.231"/>
						<rect x="24.142" y="90.8" width="1.23" height="1.231"/>
						<rect x="26.183" y="90.8" width="1.231" height="1.231"/>
						<rect x="28.224" y="90.8" width="1.231" height="1.231"/>
						<rect x="30.266" y="90.8" width="1.231" height="1.231"/>
						<rect x="32.308" y="90.8" width="1.23" height="1.231"/>
						<rect x="34.349" y="90.8" width="1.23" height="1.231"/>
						<rect x="36.391" y="90.8" width="1.23" height="1.231"/>
						<rect x="38.432" y="90.8" width="1.231" height="1.231"/>
						<rect x="40.473" y="90.8" width="1.231" height="1.231"/>
						<rect x="42.514" y="90.8" width="1.231" height="1.231"/>
						<rect x="44.556" y="90.8" width="1.231" height="1.231"/>
						<rect x="46.598" y="90.8" width="1.23" height="1.231"/>
						<rect x="48.639" y="90.8" width="1.231" height="1.231"/>
					</g>
				</g>
				<g>
					<path fill="#212121" d="M6.397,96.128H61.49c0.646,0,1.176,0.53,1.176,1.175v3.354c0,0.646-0.531,1.175-1.176,1.175H6.397
						c-0.645,0-1.175-0.528-1.175-1.175v-3.354C5.222,96.658,5.75,96.128,6.397,96.128z"/>
					<circle fill="#43A047" cx="8.098" cy="99.073" r="1.068"/>
					<circle fill="#43A047" cx="10.878" cy="99.073" r="1.068"/>
					<circle fill="#43A047" cx="13.659" cy="99.073" r="1.068"/>
					<circle fill="#55ABDB" cx="57.042" cy="99.073" r="1.068"/>
					<circle fill="#55ABDB" cx="59.822" cy="99.073" r="1.068"/>
					<rect x="16.121" y="97.554" fill="#424242" width="35.646" height="2.852"/>
					<g>
						<rect x="18.017" y="98.375" width="1.23" height="1.231"/>
						<rect x="20.058" y="98.375" width="1.231" height="1.231"/>
						<rect x="22.1" y="98.375" width="1.231" height="1.231"/>
						<rect x="24.142" y="98.375" width="1.23" height="1.231"/>
						<rect x="26.183" y="98.375" width="1.231" height="1.231"/>
						<rect x="28.224" y="98.375" width="1.231" height="1.231"/>
						<rect x="30.266" y="98.375" width="1.231" height="1.231"/>
						<rect x="32.308" y="98.375" width="1.23" height="1.231"/>
						<rect x="34.349" y="98.375" width="1.23" height="1.231"/>
						<rect x="36.391" y="98.375" width="1.23" height="1.231"/>
						<rect x="38.432" y="98.375" width="1.231" height="1.231"/>
						<rect x="40.473" y="98.375" width="1.231" height="1.231"/>
						<rect x="42.514" y="98.375" width="1.231" height="1.231"/>
						<rect x="44.556" y="98.375" width="1.231" height="1.231"/>
						<rect x="46.598" y="98.375" width="1.23" height="1.231"/>
						<rect x="48.639" y="98.375" width="1.231" height="1.231"/>
					</g>
				</g>
			</g>
		</g>
	</g>
</g>
<g>
	<path fill="#FFDE00" d="M111.214,165.986c-0.607,0-1.217-0.184-1.743-0.559c-1.201-0.858-1.6-2.463-0.939-3.783l24.718-49.425
		h-27.709c-1.213,0-2.307-0.731-2.771-1.852s-0.208-2.411,0.65-3.269l58.23-58.233c0.579-0.58,1.348-0.879,2.122-0.879
		c0.57,0,1.143,0.162,1.646,0.493c1.189,0.781,1.666,2.291,1.142,3.613l-15.247,38.433h28.146c1.209,0,2.299,0.725,2.767,1.84
		c0.468,1.114,0.221,2.4-0.627,3.263l-68.243,69.46C112.773,165.682,111.996,165.986,111.214,165.986z"/>
	<path fill="#2F2F2F" d="M163.771,50.986l-16.876,42.54h32.563l-68.244,69.46l26.89-53.767h-32.563L163.771,50.986 M179.459,93.526
		h0.005 M163.773,44.986c-1.549,0-3.085,0.598-4.245,1.757l-58.229,58.233c-1.716,1.716-2.229,4.297-1.301,6.539
		c0.929,2.242,3.117,3.704,5.543,3.704h22.854l-22.547,45.083c-1.321,2.641-0.524,5.851,1.879,7.566
		c1.05,0.75,2.271,1.117,3.485,1.117c1.564,0,3.117-0.609,4.282-1.795l68.173-69.389c1.107-1.088,1.794-2.603,1.794-4.277
		c0-3.314-2.685-6-5.998-6h-0.005H155.73l13.618-34.327c1.049-2.645,0.097-5.663-2.281-7.226
		C166.06,45.31,164.913,44.986,163.773,44.986L163.773,44.986z"/>
</g>
</svg>
