<?xml version="1.0" encoding="utf-8"?>
<!-- Generator: Adobe Illustrator 16.0.0, SVG Export Plug-In . SVG Version: 6.00 Build 0)  -->
<!DOCTYPE svg PUBLIC "-//W3C//DTD SVG 1.1//EN" "http://www.w3.org/Graphics/SVG/1.1/DTD/svg11.dtd">
<svg version="1.1" id="Layer_1" xmlns="http://www.w3.org/2000/svg" xmlns:xlink="http://www.w3.org/1999/xlink" x="0px" y="0px"
	 width="429.041px" height="365.122px" viewBox="0 0 429.041 365.122" enable-background="new 0 0 429.041 365.122"
	 xml:space="preserve">
<g>
	<g>
		<path fill="#616161" d="M86.671,77.144h334.74c4.197,0,7.629,3.438,7.629,7.63V342.78c0,4.191-3.438,7.631-7.629,7.631H86.671
			c-4.191,0-7.63-3.434-7.63-7.631V84.774C79.042,80.579,82.475,77.144,86.671,77.144z"/>
		<g>
			<path fill="#212121" d="M96.786,106.429h314.512c3.689,0,6.705,3.024,6.705,6.706v19.15c0,3.682-3.021,6.706-6.705,6.706H96.786
				c-3.682,0-6.706-3.019-6.706-6.706v-19.15C90.08,109.447,93.097,106.429,96.786,106.429z"/>
			<path fill="#43A047" d="M106.495,129.339c3.36,0,6.101-2.741,6.101-6.102c0-3.359-2.741-6.101-6.101-6.101
				c-3.36,0-6.101,2.741-6.101,6.101C100.394,126.598,103.134,129.339,106.495,129.339z"/>
			<path fill="#43A047" d="M122.367,129.339c3.36,0,6.101-2.741,6.101-6.102c0-3.359-2.74-6.101-6.101-6.101
				c-3.36,0-6.101,2.741-6.101,6.101C116.267,126.598,119.006,129.339,122.367,129.339z"/>
			<path fill="#43A047" d="M138.24,129.339c3.36,0,6.101-2.741,6.101-6.102c0-3.359-2.741-6.101-6.101-6.101
				c-3.36,0-6.101,2.741-6.101,6.101C132.139,126.598,134.878,129.339,138.24,129.339z"/>
			<path fill="#55ABDB" d="M385.899,129.339c3.359,0,6.102-2.741,6.102-6.102c0-3.359-2.742-6.101-6.102-6.101s-6.1,2.741-6.1,6.101
				C379.8,126.598,382.54,129.339,385.899,129.339z"/>
			<path fill="#55ABDB" d="M401.772,129.339c3.359,0,6.102-2.741,6.102-6.102c0-3.359-2.742-6.101-6.102-6.101
				s-6.102,2.741-6.102,6.101C395.671,126.598,398.413,129.339,401.772,129.339z"/>
			<rect x="152.296" y="114.567" fill="#424242" width="203.49" height="16.279"/>
			<g>
				<rect x="163.12" y="119.257" width="7.029" height="7.029"/>
				<rect x="174.774" y="119.257" width="7.027" height="7.029"/>
				<rect x="186.429" y="119.257" width="7.029" height="7.029"/>
				<rect x="198.083" y="119.257" width="7.029" height="7.029"/>
				<rect x="209.737" y="119.257" width="7.029" height="7.029"/>
				<rect x="221.392" y="119.257" width="7.028" height="7.029"/>
				<rect x="233.045" y="119.257" width="7.029" height="7.029"/>
				<rect x="244.699" y="119.257" width="7.029" height="7.029"/>
				<rect x="256.354" y="119.257" width="7.027" height="7.029"/>
				<rect x="268.01" y="119.257" width="7.027" height="7.029"/>
				<rect x="279.662" y="119.257" width="7.027" height="7.029"/>
				<rect x="291.315" y="119.257" width="7.029" height="7.029"/>
				<rect x="302.972" y="119.257" width="7.027" height="7.029"/>
				<rect x="314.624" y="119.257" width="7.029" height="7.029"/>
				<rect x="326.278" y="119.257" width="7.029" height="7.029"/>
				<rect x="337.935" y="119.257" width="7.027" height="7.029"/>
			</g>
			<path fill="#212121" d="M96.786,147.126h314.512c3.689,0,6.705,3.023,6.705,6.705v19.15c0,3.682-3.021,6.706-6.705,6.706H96.786
				c-3.682,0-6.706-3.018-6.706-6.706v-19.149C90.08,150.144,93.097,147.126,96.786,147.126z"/>
			<path fill="#43A047" d="M106.495,170.037c3.36,0,6.101-2.74,6.101-6.102c0-3.359-2.741-6.101-6.101-6.101
				c-3.36,0-6.101,2.741-6.101,6.101C100.394,167.295,103.134,170.037,106.495,170.037z"/>
			<path fill="#43A047" d="M122.367,170.037c3.36,0,6.101-2.74,6.101-6.102c0-3.359-2.74-6.101-6.101-6.101
				c-3.36,0-6.101,2.741-6.101,6.101C116.267,167.295,119.006,170.037,122.367,170.037z"/>
			<path fill="#43A047" d="M138.24,170.037c3.36,0,6.101-2.74,6.101-6.102c0-3.359-2.741-6.101-6.101-6.101
				c-3.36,0-6.101,2.741-6.101,6.101C132.139,167.295,134.878,170.037,138.24,170.037z"/>
			<path fill="#55ABDB" d="M385.899,170.037c3.359,0,6.102-2.74,6.102-6.102c0-3.359-2.742-6.101-6.102-6.101s-6.1,2.741-6.1,6.101
				C379.8,167.295,382.54,170.037,385.899,170.037z"/>
			<path fill="#55ABDB" d="M401.772,170.037c3.359,0,6.102-2.74,6.102-6.102c0-3.359-2.742-6.101-6.102-6.101
				s-6.102,2.741-6.102,6.101C395.671,167.295,398.413,170.037,401.772,170.037z"/>
			<rect x="152.296" y="155.265" fill="#424242" width="203.49" height="16.279"/>
			<g>
				<rect x="163.12" y="159.955" width="7.029" height="7.028"/>
				<rect x="174.774" y="159.955" width="7.027" height="7.028"/>
				<rect x="186.429" y="159.955" width="7.029" height="7.028"/>
				<rect x="198.083" y="159.955" width="7.029" height="7.028"/>
				<rect x="209.737" y="159.955" width="7.029" height="7.028"/>
				<rect x="221.392" y="159.955" width="7.028" height="7.028"/>
				<rect x="233.045" y="159.955" width="7.029" height="7.028"/>
				<rect x="244.699" y="159.955" width="7.029" height="7.028"/>
				<rect x="256.354" y="159.955" width="7.027" height="7.028"/>
				<rect x="268.01" y="159.955" width="7.027" height="7.028"/>
				<rect x="279.662" y="159.955" width="7.027" height="7.028"/>
				<rect x="291.315" y="159.955" width="7.029" height="7.028"/>
				<rect x="302.972" y="159.955" width="7.027" height="7.028"/>
				<rect x="314.624" y="159.955" width="7.029" height="7.028"/>
				<rect x="326.278" y="159.955" width="7.029" height="7.028"/>
				<rect x="337.935" y="159.955" width="7.027" height="7.028"/>
			</g>
			<path fill="#212121" d="M96.786,187.823h314.512c3.689,0,6.705,3.023,6.705,6.705v19.15c0,3.682-3.021,6.705-6.705,6.705H96.786
				c-3.682,0-6.706-3.018-6.706-6.705v-19.15C90.08,190.84,93.097,187.823,96.786,187.823z"/>
			<path fill="#43A047" d="M106.495,210.731c3.36,0,6.101-2.738,6.101-6.1s-2.741-6.102-6.101-6.102c-3.36,0-6.101,2.74-6.101,6.102
				S103.134,210.731,106.495,210.731z"/>
			<path fill="#43A047" d="M122.367,210.731c3.36,0,6.101-2.738,6.101-6.1s-2.74-6.102-6.101-6.102c-3.36,0-6.101,2.74-6.101,6.102
				C116.267,207.993,119.006,210.731,122.367,210.731z"/>
			<path fill="#43A047" d="M138.24,210.731c3.36,0,6.101-2.738,6.101-6.1s-2.741-6.102-6.101-6.102c-3.36,0-6.101,2.74-6.101,6.102
				S134.878,210.731,138.24,210.731z"/>
			<path fill="#55ABDB" d="M385.899,210.731c3.359,0,6.102-2.738,6.102-6.1s-2.742-6.102-6.102-6.102s-6.1,2.74-6.1,6.102
				S382.54,210.731,385.899,210.731z"/>
			<path fill="#55ABDB" d="M401.772,210.731c3.359,0,6.102-2.738,6.102-6.1s-2.742-6.102-6.102-6.102s-6.102,2.74-6.102,6.102
				S398.413,210.731,401.772,210.731z"/>
			<rect x="152.296" y="195.961" fill="#424242" width="203.49" height="16.279"/>
			<g>
				<rect x="163.12" y="200.649" width="7.029" height="7.029"/>
				<rect x="174.774" y="200.649" width="7.027" height="7.029"/>
				<rect x="186.429" y="200.649" width="7.029" height="7.029"/>
				<rect x="198.083" y="200.649" width="7.029" height="7.029"/>
				<rect x="209.737" y="200.649" width="7.029" height="7.029"/>
				<rect x="221.392" y="200.649" width="7.028" height="7.029"/>
				<rect x="233.045" y="200.649" width="7.029" height="7.029"/>
				<rect x="244.699" y="200.649" width="7.029" height="7.029"/>
				<rect x="256.354" y="200.649" width="7.027" height="7.029"/>
				<rect x="268.01" y="200.649" width="7.027" height="7.029"/>
				<rect x="279.662" y="200.649" width="7.027" height="7.029"/>
				<rect x="291.315" y="200.649" width="7.029" height="7.029"/>
				<rect x="302.972" y="200.649" width="7.027" height="7.029"/>
				<rect x="314.624" y="200.649" width="7.029" height="7.029"/>
				<rect x="326.278" y="200.649" width="7.029" height="7.029"/>
				<rect x="337.935" y="200.649" width="7.027" height="7.029"/>
			</g>
			<path fill="#212121" d="M96.786,228.518h314.512c3.689,0,6.705,3.025,6.705,6.707v19.15c0,3.682-3.021,6.705-6.705,6.705H96.786
				c-3.682,0-6.706-3.018-6.706-6.705v-19.15C90.08,231.538,93.097,228.518,96.786,228.518z"/>
			<path fill="#43A047" d="M106.495,251.43c3.36,0,6.101-2.74,6.101-6.102c0-3.359-2.741-6.102-6.101-6.102
				c-3.36,0-6.101,2.74-6.101,6.102C100.394,248.688,103.134,251.43,106.495,251.43z"/>
			<path fill="#43A047" d="M122.367,251.43c3.36,0,6.101-2.74,6.101-6.102c0-3.359-2.74-6.102-6.101-6.102
				c-3.36,0-6.101,2.74-6.101,6.102C116.267,248.688,119.006,251.43,122.367,251.43z"/>
			<path fill="#43A047" d="M138.24,251.43c3.36,0,6.101-2.74,6.101-6.102c0-3.359-2.741-6.102-6.101-6.102
				c-3.36,0-6.101,2.74-6.101,6.102C132.139,248.688,134.878,251.43,138.24,251.43z"/>
			<path fill="#55ABDB" d="M385.899,251.43c3.359,0,6.102-2.74,6.102-6.102c0-3.359-2.742-6.102-6.102-6.102s-6.1,2.74-6.1,6.102
				C379.8,248.688,382.54,251.43,385.899,251.43z"/>
			<path fill="#55ABDB" d="M401.772,251.43c3.359,0,6.102-2.74,6.102-6.102c0-3.359-2.742-6.102-6.102-6.102
				s-6.102,2.74-6.102,6.102C395.671,248.688,398.413,251.43,401.772,251.43z"/>
			<rect x="152.296" y="236.659" fill="#424242" width="203.49" height="16.279"/>
			<g>
				<rect x="163.12" y="241.348" width="7.029" height="7.029"/>
				<rect x="174.774" y="241.348" width="7.027" height="7.029"/>
				<rect x="186.429" y="241.348" width="7.029" height="7.029"/>
				<rect x="198.083" y="241.348" width="7.029" height="7.029"/>
				<rect x="209.737" y="241.348" width="7.029" height="7.029"/>
				<rect x="221.392" y="241.348" width="7.028" height="7.029"/>
				<rect x="233.045" y="241.348" width="7.029" height="7.029"/>
				<rect x="244.699" y="241.348" width="7.029" height="7.029"/>
				<rect x="256.354" y="241.348" width="7.027" height="7.029"/>
				<rect x="268.01" y="241.348" width="7.027" height="7.029"/>
				<rect x="279.662" y="241.348" width="7.027" height="7.029"/>
				<rect x="291.315" y="241.348" width="7.029" height="7.029"/>
				<rect x="302.972" y="241.348" width="7.027" height="7.029"/>
				<rect x="314.624" y="241.348" width="7.029" height="7.029"/>
				<rect x="326.278" y="241.348" width="7.029" height="7.029"/>
				<rect x="337.935" y="241.348" width="7.027" height="7.029"/>
			</g>
			<path fill="#212121" d="M96.786,269.219h314.512c3.689,0,6.705,3.021,6.705,6.703v19.152c0,3.68-3.021,6.703-6.705,6.703H96.786
				c-3.682,0-6.706-3.016-6.706-6.703v-19.152C90.08,272.235,93.097,269.219,96.786,269.219z"/>
			<path fill="#43A047" d="M106.495,292.127c3.36,0,6.101-2.74,6.101-6.104c0-3.357-2.741-6.1-6.101-6.1
				c-3.36,0-6.101,2.74-6.101,6.1C100.394,289.387,103.134,292.127,106.495,292.127z"/>
			<path fill="#43A047" d="M122.367,292.127c3.36,0,6.101-2.74,6.101-6.104c0-3.357-2.74-6.1-6.101-6.1
				c-3.36,0-6.101,2.74-6.101,6.1C116.267,289.387,119.006,292.127,122.367,292.127z"/>
			<path fill="#43A047" d="M138.24,292.127c3.36,0,6.101-2.74,6.101-6.104c0-3.357-2.741-6.1-6.101-6.1
				c-3.36,0-6.101,2.74-6.101,6.1C132.139,289.387,134.878,292.127,138.24,292.127z"/>
			<path fill="#55ABDB" d="M385.899,292.127c3.359,0,6.102-2.74,6.102-6.104c0-3.357-2.742-6.1-6.102-6.1s-6.1,2.74-6.1,6.1
				C379.8,289.387,382.54,292.127,385.899,292.127z"/>
			<path fill="#55ABDB" d="M401.772,292.127c3.359,0,6.102-2.74,6.102-6.104c0-3.357-2.742-6.1-6.102-6.1s-6.102,2.74-6.102,6.1
				C395.671,289.387,398.413,292.127,401.772,292.127z"/>
			<rect x="152.296" y="277.356" fill="#424242" width="203.49" height="16.277"/>
			<g>
				<rect x="163.12" y="282.045" width="7.029" height="7.029"/>
				<rect x="174.774" y="282.045" width="7.027" height="7.029"/>
				<rect x="186.429" y="282.045" width="7.029" height="7.029"/>
				<rect x="198.083" y="282.045" width="7.029" height="7.029"/>
				<rect x="209.737" y="282.045" width="7.029" height="7.029"/>
				<rect x="221.392" y="282.045" width="7.028" height="7.029"/>
				<rect x="233.045" y="282.045" width="7.029" height="7.029"/>
				<rect x="244.699" y="282.045" width="7.029" height="7.029"/>
				<rect x="256.354" y="282.045" width="7.027" height="7.029"/>
				<rect x="268.01" y="282.045" width="7.027" height="7.029"/>
				<rect x="279.662" y="282.045" width="7.027" height="7.029"/>
				<rect x="291.315" y="282.045" width="7.029" height="7.029"/>
				<rect x="302.972" y="282.045" width="7.027" height="7.029"/>
				<rect x="314.624" y="282.045" width="7.029" height="7.029"/>
				<rect x="326.278" y="282.045" width="7.029" height="7.029"/>
				<rect x="337.935" y="282.045" width="7.027" height="7.029"/>
			</g>
			<path fill="#212121" d="M96.786,309.915h314.512c3.689,0,6.705,3.023,6.705,6.705v19.15c0,3.684-3.021,6.705-6.705,6.705H96.786
				c-3.682,0-6.706-3.018-6.706-6.705v-19.15C90.08,312.932,93.097,309.915,96.786,309.915z"/>
			<path fill="#43A047" d="M106.495,332.823c3.36,0,6.101-2.738,6.101-6.102c0-3.359-2.741-6.1-6.101-6.1
				c-3.36,0-6.101,2.738-6.101,6.1C100.394,330.084,103.134,332.823,106.495,332.823z"/>
			<path fill="#43A047" d="M122.367,332.823c3.36,0,6.101-2.738,6.101-6.102c0-3.359-2.74-6.1-6.101-6.1
				c-3.36,0-6.101,2.738-6.101,6.1C116.267,330.084,119.006,332.823,122.367,332.823z"/>
			<path fill="#43A047" d="M138.24,332.823c3.36,0,6.101-2.738,6.101-6.102c0-3.359-2.741-6.1-6.101-6.1
				c-3.36,0-6.101,2.738-6.101,6.1C132.139,330.084,134.878,332.823,138.24,332.823z"/>
			<path fill="#55ABDB" d="M385.899,332.823c3.359,0,6.102-2.738,6.102-6.102c0-3.359-2.742-6.1-6.102-6.1s-6.1,2.738-6.1,6.1
				C379.8,330.084,382.54,332.823,385.899,332.823z"/>
			<path fill="#55ABDB" d="M401.772,332.823c3.359,0,6.102-2.738,6.102-6.102c0-3.359-2.742-6.1-6.102-6.1s-6.102,2.738-6.102,6.1
				C395.671,330.084,398.413,332.823,401.772,332.823z"/>
			<rect x="152.296" y="318.053" fill="#424242" width="203.49" height="16.279"/>
			<g>
				<rect x="163.12" y="322.743" width="7.029" height="7.027"/>
				<rect x="174.774" y="322.743" width="7.027" height="7.027"/>
				<rect x="186.429" y="322.743" width="7.029" height="7.027"/>
				<rect x="198.083" y="322.743" width="7.029" height="7.027"/>
				<rect x="209.737" y="322.743" width="7.029" height="7.027"/>
				<rect x="221.392" y="322.743" width="7.028" height="7.027"/>
				<rect x="233.045" y="322.743" width="7.029" height="7.027"/>
				<rect x="244.699" y="322.743" width="7.029" height="7.027"/>
				<rect x="256.354" y="322.743" width="7.027" height="7.027"/>
				<rect x="268.01" y="322.743" width="7.027" height="7.027"/>
				<rect x="279.662" y="322.743" width="7.027" height="7.027"/>
				<rect x="291.315" y="322.743" width="7.029" height="7.027"/>
				<rect x="302.972" y="322.743" width="7.027" height="7.027"/>
				<rect x="314.624" y="322.743" width="7.029" height="7.027"/>
				<rect x="326.278" y="322.743" width="7.029" height="7.027"/>
				<rect x="337.935" y="322.743" width="7.027" height="7.027"/>
			</g>
		</g>
		<g>
			<g>
				<path fill="#757575" d="M404.218,99.305c3.994,0,7.254-3.258,7.254-7.252c0-3.995-3.26-7.253-7.254-7.253
					c-3.996,0-7.252,3.258-7.252,7.253C396.966,96.047,400.222,99.305,404.218,99.305z"/>
				<path fill="#424242" d="M404.218,96.664c2.539,0,4.611-2.071,4.611-4.61c0-2.54-2.072-4.611-4.611-4.611
					s-4.607,2.071-4.607,4.611C399.608,94.591,401.679,96.664,404.218,96.664z"/>
			</g>
			<g>
				<path fill="#757575" d="M103.866,99.305c3.995,0,7.252-3.258,7.252-7.252c0-3.995-3.257-7.253-7.252-7.253
					c-3.995,0-7.253,3.258-7.253,7.253C96.611,96.047,99.871,99.305,103.866,99.305z"/>
				<path fill="#424242" d="M103.866,96.664c2.539,0,4.61-2.071,4.61-4.61c0-2.54-2.071-4.611-4.61-4.611
					c-2.54,0-4.611,2.071-4.611,4.611C99.254,94.591,101.326,96.664,103.866,96.664z"/>
			</g>
		</g>
	</g>
	<g>
		<g>
			<path fill="#FFFFFF" d="M79,357.624c-39.425,0-71.5-32.076-71.5-71.5c0-39.428,32.075-71.502,71.5-71.502
				c39.423,0,71.5,32.074,71.5,71.5S118.423,357.624,79,357.624z"/>
			<path fill="#2F2F2F" d="M79,222.122c35.289,0,64,28.711,64,64c0,35.291-28.711,64-64,64c-35.291,0-64-28.711-64-64
				S43.709,222.122,79,222.122 M79,207.122c-43.631,0-79,35.369-79,79c0,43.629,35.369,79,79,79c43.628,0,79-35.371,79-79
				C158,242.491,122.628,207.122,79,207.122L79,207.122z"/>
		</g>
		<g>
			<rect x="78.07" y="229.555" fill="#CBD5DA" width="2" height="10"/>
		</g>
		<g>
			
				<rect x="34.299" y="255.208" transform="matrix(0.4889 -0.8724 0.8724 0.4889 -208.951 163.7935)" fill="#CBD5DA" width="2.002" height="10"/>
		</g>
		<g>
			
				<rect x="52.706" y="236.442" transform="matrix(0.8627 -0.5058 0.5058 0.8627 -114.741 60.3231)" fill="#CBD5DA" width="2" height="10"/>
		</g>
		<g>
			
				<rect x="121.839" y="255.207" transform="matrix(-0.4892 -0.8721 0.8721 -0.4892 -44.0012 494.6465)" fill="#CBD5DA" width="2.002" height="10"/>
		</g>
		<g>
			
				<rect x="103.436" y="236.44" transform="matrix(-0.8628 -0.5056 0.5056 -0.8628 72.4783 502.5508)" fill="#CBD5DA" width="2.001" height="10"/>
		</g>
		<g>
			<g>
				<path fill="#81BD3B" d="M29.737,288.745c0.074,0.152,0.191,0.252,0.379,0.252c0.791-0.002,1.582,0,2.373,0
					c0.063,0,0.125,0,0.221,0c-0.115,0.234-0.216,0.443-0.32,0.65c-0.189,0.379-0.385,0.756-0.572,1.135
					c-0.191,0.383,0.043,0.66,0.4,0.652c0.896-0.016,1.791-0.006,2.686-0.002c0.227,0.002,0.377-0.082,0.475-0.291
					c0.185-0.391,0.38-0.771,0.58-1.15l1.838,0.043c1.05,0.031,2.1,0.098,3.149,0.09c0.795-0.008,1.589-0.104,2.382-0.18
					c0.764-0.068,1.517-0.213,2.257-0.418c0.092-0.025,0.142-0.004,0.181,0.092c0.193,0.498,0.4,0.99,0.595,1.488
					c0.09,0.229,0.202,0.324,0.45,0.324c0.912,0,1.826-0.01,2.738,0.004c0.356,0.006,0.557-0.314,0.387-0.639
					c-0.33-0.623-0.639-1.256-0.956-1.883c-0.052-0.104-0.075-0.17,0.056-0.258c1.587-1.094,2.916-2.441,4.01-4.023l0.455-0.688
					c0.289-0.529,0.582-1.055,0.861-1.59c0.127-0.242,0.221-0.504,0.342-0.752c0.023-0.049,0.096-0.096,0.149-0.102
					c0.125-0.018,0.254-0.004,0.381-0.006c0.262-0.006,0.442-0.141,0.461-0.398c0.058-0.824-0.011-1.625-0.489-2.338
					c-0.387-0.578-0.945-0.893-1.611-1.027c-0.494-0.102-0.992-0.146-1.484,0.027c-0.557,0.197-0.957,0.574-1.166,1.115
					c-0.126,0.324-0.166,0.68-0.243,1.02c-0.167,0.734-0.336,1.471-0.495,2.207c-0.018,0.082,0,0.189,0.039,0.266
					c0.147,0.279,0.329,0.541,0.466,0.824c0.22,0.459,0.149,0.898-0.118,1.326c-0.934,1.496-2.209,2.598-3.799,3.352
					c-0.858,0.408-1.75,0.705-2.673,0.904c-1.747,0.379-3.518,0.498-5.301,0.402c-0.898-0.047-1.796-0.121-2.69-0.227
					c-0.743-0.086-1.481-0.221-2.217-0.359c-0.696-0.127-1.39-0.273-2.078-0.438c-0.336-0.08-0.592-0.293-0.762-0.604
					c-0.021-0.037-0.045-0.074-0.076-0.129c-0.393,0.297-0.77,0.578-1.14,0.863C29.733,288.381,29.671,288.612,29.737,288.745z
					 M52.847,279.459c0.002-0.223,0.198-0.414,0.423-0.41c0.224,0.004,0.414,0.203,0.406,0.424c-0.009,0.23-0.184,0.398-0.412,0.398
					C53.027,279.872,52.846,279.69,52.847,279.459z"/>
				<path fill="#81BD3B" d="M43.448,288.057c-0.167,0.043-0.338,0.076-0.509,0.1c-1.031,0.131-2.064,0.232-3.105,0.18
					c-0.427,0-0.854,0.006-1.28-0.006c-0.068-0.002-0.159-0.063-0.197-0.125c-0.444-0.715-0.878-1.438-1.32-2.158
					c-0.064-0.104-0.073-0.193-0.021-0.303c0.41-0.828,0.818-1.656,1.231-2.484c0.026-0.051,0.091-0.104,0.146-0.117
					c0.304-0.063,0.611-0.113,0.918-0.164c0.717-0.117,1.434-0.23,2.149-0.348c0.37-0.061,0.738-0.127,1.108-0.182
					c0.059-0.006,0.143,0.014,0.183,0.055c0.666,0.658,1.328,1.32,1.985,1.986c0.036,0.037,0.053,0.127,0.034,0.178
					c-0.401,1.094-0.81,2.188-1.219,3.277C43.535,287.991,43.49,288.047,43.448,288.057z"/>
				<path fill="#81BD3B" d="M42.583,281.497c-0.044,0.061-0.13,0.107-0.204,0.125c-0.231,0.051-0.466,0.082-0.699,0.123
					c-0.539,0.094-1.078,0.188-1.618,0.277c-0.597,0.104-1.194,0.203-1.792,0.295c-0.079,0.012-0.184-0.008-0.25-0.053
					c-0.611-0.426-1.219-0.857-1.825-1.291c-0.222-0.158-0.439-0.322-0.677-0.496c1.457-1.109,3.077-1.75,4.864-1.955
					c1.364-0.154,2.714-0.055,4.043,0.363c-0.024,0.051-0.036,0.09-0.06,0.121C43.772,279.838,43.182,280.668,42.583,281.497z"/>
				<path fill="#81BD3B" d="M49.651,284.034c-0.659,0-1.318,0-1.977,0c-0.583,0-1.168-0.021-1.75,0.008
					c-0.333,0.016-0.565-0.082-0.795-0.326c-0.547-0.584-1.127-1.137-1.69-1.705c-0.054-0.053-0.146-0.094-0.061-0.211
					c0.599-0.826,1.192-1.656,1.78-2.49c0.078-0.111,0.15-0.113,0.255-0.066c0.985,0.447,1.882,1.025,2.664,1.775
					c0.765,0.732,1.388,1.57,1.874,2.514C50.106,283.831,49.985,284.034,49.651,284.034z"/>
				<path fill="#81BD3B" d="M37.396,283.118c-0.383,0.766-0.754,1.535-1.136,2.301c-0.03,0.061-0.111,0.121-0.178,0.133
					c-0.266,0.047-0.536,0.076-0.804,0.109c-0.961,0.119-1.922,0.236-2.882,0.359c-0.158,0.02-0.316,0.041-0.486,0.064
					c0.003-0.059-0.003-0.1,0.009-0.135c0.209-0.604,0.379-1.223,0.639-1.801c0.515-1.145,1.255-2.141,2.166-3.006
					c0.1-0.096,0.17-0.094,0.276-0.018c0.767,0.551,1.534,1.102,2.308,1.646C37.45,282.872,37.475,282.959,37.396,283.118z"/>
				<path fill="#81BD3B" d="M45.771,284.852c1.114,0.004,2.228,0.002,3.343,0.002c0.056,0,0.111,0.008,0.217,0.012
					c-0.63,0.787-1.354,1.391-2.182,1.875s-1.708,0.838-2.66,1.078c0.09-0.242,0.166-0.453,0.244-0.662
					c0.262-0.705,0.531-1.408,0.783-2.117C45.564,284.897,45.625,284.85,45.771,284.852z"/>
				<path fill="#81BD3B" d="M36.104,286.383c0.141-0.02,0.199,0.035,0.258,0.133c0.204,0.34,0.409,0.678,0.612,1.016
					c0.142,0.238,0.284,0.475,0.438,0.736c-0.498-0.063-0.963-0.109-1.426-0.17c-0.404-0.057-0.809-0.115-1.212-0.186
					c-0.494-0.086-0.987-0.174-1.478-0.273c-0.434-0.094-0.865-0.197-1.295-0.309c-0.17-0.043-0.25-0.189-0.23-0.396
					c0.371-0.047,0.731-0.088,1.092-0.133C33.944,286.665,35.024,286.532,36.104,286.383z"/>
			</g>
		</g>
		<path fill="#CBD5DA" d="M118.652,277.6h2.858c-3.75-19.125-20.586-33.561-40.809-33.561c-20.55,0-37.609,14.9-40.99,34.484
			c5.404-14.234,19.166-24.357,35.299-24.357c17.451,0,32.13,11.848,36.453,27.936h7.188V277.6L118.652,277.6z"/>
		<polygon fill="#9D1F60" points="113.144,259.081 70.8,300.051 88.644,312.395 		"/>
		<polygon fill="#EC1E28" points="113.144,259.081 70.8,300.051 81.326,304.543 		"/>
		<g>
			<path fill="#FFFFFF" d="M78.712,317.178c-5.239,0-9.5-4.262-9.5-9.5c0-5.24,4.262-9.502,9.5-9.502c5.238,0,9.5,4.262,9.5,9.502
				C88.212,312.917,83.951,317.178,78.712,317.178z"/>
			<path fill="#2F2F2F" d="M78.712,299.676c4.41,0,8,3.59,8,8.002c0,4.41-3.59,8-8,8c-4.412,0-8-3.59-8-8
				C70.712,303.266,74.301,299.676,78.712,299.676 M78.712,296.676c-6.076,0-11,4.926-11,11.002c0,6.074,4.925,11,11,11
				c6.074,0,11-4.926,11-11C89.712,301.602,84.787,296.676,78.712,296.676L78.712,296.676z"/>
		</g>
		<polygon fill="#FFA000" points="126.994,269.922 117.613,269.922 109.765,285.381 117.496,285.381 113.396,298.151 
			126.525,280.581 119.964,280.581 		"/>
		<path opacity="0.07" fill="#2F2F2F" enable-background="new    " d="M79,207.122c43.628,0,79,35.369,79,79
			c0,43.629-35.371,79-79,79"/>
	</g>
	<g>
		<path fill="#FFDE00" d="M209.346,172c-0.809,0-1.623-0.245-2.322-0.745c-1.603-1.144-2.134-3.282-1.254-5.044l35.52-71.021
			h-40.047c-1.618,0-3.076-0.975-3.695-2.47c-0.619-1.493-0.277-3.215,0.867-4.358l83.185-83.19C282.372,4.399,283.396,4,284.429,4
			c0.761,0,1.524,0.216,2.196,0.658c1.585,1.042,2.221,3.054,1.521,4.817l-21.937,55.296h40.629c1.611,0,3.064,0.967,3.688,2.453
			s0.295,3.201-0.834,4.35l-97.49,99.23C211.424,171.594,210.388,172,209.346,172z"/>
		<path fill="#2F2F2F" d="M284.428,8l-24.108,60.771h46.519L209.347,168l38.414-76.811h-46.519L284.428,8 M306.838,68.771h0.004
			 M284.43,0c-2.064,0-4.113,0.797-5.66,2.343l-83.185,83.19c-2.288,2.288-2.972,5.729-1.734,8.718
			c1.238,2.989,4.155,4.938,7.392,4.938h33.574l-32.624,65.232c-1.762,3.521-0.698,7.801,2.506,10.089
			c1.399,0.999,3.027,1.489,4.646,1.489c2.085,0,4.156-0.813,5.709-2.395l97.407-99.146c1.469-1.451,2.379-3.464,2.379-5.69
			c0-4.418-3.58-8-7.998-8h-0.004h-34.739l19.766-49.82c1.397-3.527,0.128-7.551-3.042-9.635C287.478,0.432,285.95,0,284.43,0
			L284.43,0z"/>
	</g>
</g>
</svg>
